<svg width="24" height="24" viewBox="0 0 24 24" fill="none" xmlns="http://www.w3.org/2000/svg">
<path fill-rule="evenodd" clip-rule="evenodd" d="M7.60001 6.90008C7.60001 4.46977 9.57017 2.49961 12.0005 2.49961C14.4308 2.49961 16.401 4.46977 16.401 6.90008C16.401 8.91333 15.0484 10.6125 13.201 11.135C12.8996 11.2202 12.6915 11.4953 12.6915 11.8086V12.9279C12.6915 13.1136 12.7653 13.2916 12.8965 13.4229L14.2563 14.7826L12.4329 16.6061C12.1595 16.8794 12.1595 17.3226 12.4329 17.596L13.8106 18.9737L11.7841 21.1561L10.8458 20.0838V11.6529C10.8458 11.3645 10.669 11.1057 10.4004 11.0008C8.76009 10.3602 7.60001 8.76476 7.60001 6.90008ZM12.0005 1.09961C8.79697 1.09961 6.20001 3.69657 6.20001 6.90008C6.20001 9.18777 7.52414 11.1647 9.44577 12.1089V20.3468C9.44577 20.5163 9.50731 20.6801 9.61896 20.8077L11.2418 22.6625C11.3724 22.8117 11.5601 22.8985 11.7583 22.9014C11.9565 22.9044 12.1467 22.8231 12.2816 22.6778L15.2955 19.4321C15.5517 19.1562 15.5438 18.727 15.2775 18.4608L13.9178 17.101L15.7412 15.2776C16.0146 15.0042 16.0146 14.561 15.7412 14.2877L14.0915 12.638V12.312C16.2613 11.473 17.801 9.36714 17.801 6.90008C17.801 3.69657 15.204 1.09961 12.0005 1.09961ZM12.0005 6.4364C12.6407 6.4364 13.1597 5.91741 13.1597 5.2772C13.1597 4.63699 12.6407 4.118 12.0005 4.118C11.3603 4.118 10.8413 4.63699 10.8413 5.2772C10.8413 5.91741 11.3603 6.4364 12.0005 6.4364Z" fill="#0A0A0A"/>
</svg>
