<svg width="25" height="23" viewBox="0 0 25 23" fill="none" xmlns="http://www.w3.org/2000/svg">
<path d="M6.13332 17.6664L5.77052 18.3794L6.13332 17.6664ZM5.13332 21.9667L4.42573 21.5935C4.29493 21.8414 4.30347 22.1398 4.44827 22.3799C4.59306 22.6199 4.85296 22.7667 5.13332 22.7667V21.9667ZM5.13332 17.0965L5.56253 16.4214V16.4214L5.13332 17.0965ZM11.287 19.0871L11.3499 18.2896L11.287 19.0871ZM10.7385 19.286L10.1815 18.7117L10.7385 19.286ZM24.1333 9.96671H23.3333C23.3333 14.4185 18.6586 18.3334 12.4667 18.3334V19.1334V19.9334C19.1613 19.9334 24.9333 15.6401 24.9333 9.96671H24.1333ZM0.799988 9.96671H1.59999C1.59999 5.51492 6.27469 1.60005 12.4667 1.60005V0.800049V4.87566e-05C5.77198 4.87566e-05 -1.22786e-05 4.29329 -1.22786e-05 9.96671H0.799988ZM12.4667 0.800049V1.60005C18.6586 1.60005 23.3333 5.51492 23.3333 9.96671H24.1333H24.9333C24.9333 4.29329 19.1613 4.87566e-05 12.4667 4.87566e-05V0.800049ZM12.4667 19.1334V18.3334C12.0894 18.3334 11.7169 18.3185 11.3499 18.2896L11.287 19.0871L11.2241 19.8846C11.6329 19.9169 12.0475 19.9334 12.4667 19.9334V19.1334ZM10.7385 19.286L10.1815 18.7117C8.90112 19.9536 7.61297 20.5658 6.65746 20.8691C6.17867 21.0211 5.78275 21.0956 5.51319 21.1321C5.37852 21.1503 5.27578 21.1589 5.2105 21.1631C5.17787 21.1651 5.15466 21.166 5.14155 21.1664C5.13499 21.1666 5.13097 21.1667 5.12957 21.1667C5.12887 21.1667 5.12883 21.1667 5.12945 21.1667C5.12976 21.1667 5.13023 21.1667 5.13088 21.1667C5.1312 21.1667 5.13157 21.1667 5.13197 21.1667C5.13218 21.1667 5.13251 21.1667 5.13262 21.1667C5.13296 21.1667 5.13332 21.1667 5.13332 21.9667C5.13332 22.7667 5.1337 22.7667 5.13409 22.7667C5.13424 22.7667 5.13464 22.7667 5.13493 22.7667C5.13551 22.7667 5.13613 22.7667 5.1368 22.7667C5.13814 22.7667 5.13965 22.7667 5.14134 22.7667C5.14471 22.7667 5.14878 22.7666 5.15354 22.7665C5.16306 22.7664 5.17533 22.7661 5.19026 22.7657C5.22012 22.7648 5.26065 22.7631 5.31112 22.7599C5.41202 22.7535 5.55285 22.7413 5.72773 22.7176C6.0773 22.6703 6.56445 22.5773 7.14147 22.3941C8.29759 22.0272 9.81204 21.2991 11.2955 19.8602L10.7385 19.286ZM5.13332 21.9667C5.84091 22.34 5.84097 22.3399 5.84103 22.3397C5.84106 22.3397 5.84113 22.3396 5.84119 22.3394C5.84132 22.3392 5.84147 22.3389 5.84166 22.3385C5.84203 22.3378 5.84252 22.3369 5.84313 22.3357C5.84435 22.3334 5.84604 22.3302 5.84819 22.3261C5.85248 22.3179 5.85859 22.3061 5.86636 22.2911C5.8819 22.261 5.9041 22.2176 5.93175 22.1628C5.987 22.0531 6.06419 21.897 6.15339 21.7084C6.33087 21.3331 6.56003 20.8206 6.75843 20.2855C6.95245 19.7622 7.13638 19.1667 7.19417 18.6403C7.22283 18.3792 7.22755 18.0776 7.14996 17.7893C7.06796 17.4847 6.87722 17.1473 6.49613 16.9534L6.13332 17.6664L5.77052 18.3794C5.63942 18.3127 5.60493 18.2051 5.60496 18.2052C5.6094 18.2217 5.62193 18.2998 5.60372 18.4657C5.56776 18.7933 5.4392 19.2411 5.25821 19.7293C5.08162 20.2056 4.87327 20.6728 4.707 21.0243C4.62433 21.1991 4.55308 21.3432 4.50286 21.4428C4.47777 21.4926 4.45799 21.5312 4.44472 21.5569C4.43809 21.5698 4.43309 21.5794 4.42987 21.5856C4.42826 21.5886 4.4271 21.5909 4.4264 21.5922C4.42606 21.5928 4.42582 21.5933 4.42571 21.5935C4.42566 21.5936 4.42563 21.5937 4.42563 21.5937C4.42563 21.5936 4.42566 21.5936 4.42566 21.5936C4.42569 21.5935 4.42573 21.5935 5.13332 21.9667ZM6.13332 17.6664L6.49613 16.9534C6.17201 16.7885 5.86043 16.6108 5.56253 16.4214L5.13332 17.0965L4.70411 17.7716C5.04584 17.9889 5.4018 18.1918 5.77052 18.3794L6.13332 17.6664ZM5.13332 17.0965L5.56253 16.4214C3.0926 14.8511 1.59999 12.5109 1.59999 9.96671H0.799988H-1.22786e-05C-1.22786e-05 13.1819 1.88746 15.9809 4.70411 17.7716L5.13332 17.0965ZM11.287 19.0871L11.3499 18.2896C10.9145 18.2552 10.4897 18.4129 10.1815 18.7117L10.7385 19.286L11.2955 19.8602C11.2791 19.8762 11.2543 19.887 11.2241 19.8846L11.287 19.0871Z" fill="black"/>
</svg>
