<svg width="388" height="381" viewBox="0 0 388 381" fill="none" xmlns="http://www.w3.org/2000/svg">
<rect width="385" height="381" rx="73" fill="#51CC00"/>
<g filter="url(#filter0_d_2127_9430)">
<path fill-rule="evenodd" clip-rule="evenodd" d="M63.8685 311.708L63.8309 311.765C61.8923 314.666 61.6328 318.482 63.1622 321.649C64.6922 324.818 67.7537 326.808 71.0952 326.808H71.1152H71.1377H71.1905L71.3273 326.806C71.4324 326.804 71.5647 326.801 71.7235 326.795C72.0412 326.783 72.4652 326.761 72.9891 326.723C74.0369 326.644 75.4856 326.493 77.2836 326.205C80.8794 325.629 85.8776 324.502 91.86 322.304C103.776 317.924 119.475 309.331 135.683 292.566C140.085 292.923 144.547 293.106 149.057 293.106C223.731 293.106 288.112 242.038 288.112 174.553C288.112 107.068 223.731 56 149.057 56C74.3822 56 10 107.068 10 174.553C10 212.798 31.0533 246.091 62.4709 267.392C66.2827 269.976 70.2531 272.39 74.3658 274.621C75.8333 275.417 76.5606 276.424 76.6818 279.108C76.8295 282.381 75.8448 286.933 73.8697 292.196C71.9621 297.28 69.4531 302.193 67.3624 305.909C66.3285 307.746 65.4226 309.246 64.7838 310.272C64.465 310.785 64.2142 311.177 64.0491 311.432L63.9832 311.533L63.8685 311.708ZM245.343 288.126C242.905 288.126 240.479 288.068 238.066 287.953C282.321 264.744 312.633 223.531 312.633 174.679C312.633 128.426 285.461 89.0212 245.008 65.261L245.343 65.2606C315.25 65.2606 375.849 113.098 375.849 176.693C375.849 212.723 356.015 244.021 326.536 264.007C323.214 266.26 316.047 270.949 312.011 273.14C311.167 273.598 310.801 273.917 310.757 275.714C310.697 278.203 311.566 281.906 313.426 286.419C315.204 290.737 317.522 294.929 319.46 298.117C320.417 299.69 321.252 300.972 321.839 301.847C322.132 302.285 322.361 302.617 322.512 302.833L322.674 303.065L322.704 303.107C324.813 306.043 325.18 310.005 323.646 313.321C322.111 316.639 318.942 318.741 315.472 318.741C306.151 318.741 295.902 313.586 287.263 308.082C278.22 302.32 269.233 295.03 262.02 288.733C261.465 288.248 260.735 287.97 259.964 287.984C254.846 288.074 247.453 288.126 245.343 288.126Z" fill="white"/>
</g>
<defs>
<filter id="filter0_d_2127_9430" x="10" y="56" width="377.749" height="281.709" filterUnits="userSpaceOnUse" color-interpolation-filters="sRGB">
<feFlood flood-opacity="0" result="BackgroundImageFix"/>
<feColorMatrix in="SourceAlpha" type="matrix" values="0 0 0 0 0 0 0 0 0 0 0 0 0 0 0 0 0 0 127 0" result="hardAlpha"/>
<feOffset dx="8" dy="7"/>
<feGaussianBlur stdDeviation="1.95"/>
<feComposite in2="hardAlpha" operator="out"/>
<feColorMatrix type="matrix" values="0 0 0 0 0 0 0 0 0 0 0 0 0 0 0 0 0 0 0.25 0"/>
<feBlend mode="normal" in2="BackgroundImageFix" result="effect1_dropShadow_2127_9430"/>
<feBlend mode="normal" in="SourceGraphic" in2="effect1_dropShadow_2127_9430" result="shape"/>
</filter>
</defs>
</svg>
