<svg width="17" height="16" viewBox="0 0 17 16" fill="none" xmlns="http://www.w3.org/2000/svg">
<path fill-rule="evenodd" clip-rule="evenodd" d="M0 1.7C0 0.761116 0.761116 0 1.7 0H14.7C15.6389 0 16.4 0.761116 16.4 1.7V2.7C16.4 3.38933 15.9897 3.98283 15.4 4.24964V13.7C15.4 14.6389 14.6389 15.4 13.7 15.4H2.70003C1.76115 15.4 1.00003 14.6389 1.00003 13.7V4.24967C0.410309 3.98287 0 3.38935 0 2.7V1.7ZM2.40003 4.4H14V13.7C14 13.8657 13.8657 14 13.7 14H2.70003C2.53434 14 2.40003 13.8657 2.40003 13.7V4.4ZM1.7 1.4C1.53431 1.4 1.4 1.53431 1.4 1.7V2.7C1.4 2.86569 1.53431 3 1.7 3H14.7C14.8657 3 15 2.86569 15 2.7V1.7C15 1.53431 14.8657 1.4 14.7 1.4H1.7ZM5.10005 6.0001C4.60299 6.0001 4.20005 6.40304 4.20005 6.9001C4.20005 7.39715 4.60299 7.8001 5.10005 7.8001H11.3C11.7971 7.8001 12.2 7.39715 12.2 6.9001C12.2 6.40304 11.7971 6.0001 11.3 6.0001H5.10005Z" fill="#767779"/>
</svg>
