<svg width="24" height="24" viewBox="0 0 24 24" fill="none" xmlns="http://www.w3.org/2000/svg">
<path fill-rule="evenodd" clip-rule="evenodd" d="M9.219 4.70499C10.2908 3.09724 12.1724 2.21837 14.0915 2.4316L14.1615 2.43939C14.6774 2.49671 15.182 2.62974 15.6591 2.83421L16.529 3.20703C17.5957 3.66418 18.5135 4.41015 19.179 5.36088C20.4533 7.18129 20.516 9.58712 19.3383 11.4714L19.2184 11.6634C19.1442 11.5478 19.092 11.416 19.0683 11.2733L18.928 10.432C18.8313 9.85144 18.5875 9.30537 18.2198 8.8458L16.6666 6.90429C16.5422 6.74881 16.3575 6.65365 16.1587 6.64264C15.9599 6.63163 15.7658 6.7058 15.625 6.8466L15.0684 7.40319C14.513 7.95861 13.8506 8.39542 13.1213 8.68714L12.5834 8.90227C12.1908 7.84001 11.3392 6.99462 10.2692 6.60552C7.90309 5.74513 5.30939 7.36494 5.12815 9.9022L5.0269 11.3198C5.00617 11.6099 4.84719 11.8591 4.61718 12.0047C4.54533 11.92 4.46644 11.7989 4.38541 11.6278C4.21284 11.2635 4.08571 10.7861 3.99683 10.2824C3.90915 9.78558 3.86455 9.29801 3.84211 8.93161C3.83095 8.74936 3.82541 8.5993 3.82267 8.49585C3.82129 8.44417 3.82062 8.40425 3.82029 8.3779L3.82002 8.34884L3.81999 8.34239L3.81998 8.34157L3.81998 8.34136L3.81998 8.3413C3.82014 6.33656 5.54158 4.7646 7.53813 4.94611L8.52689 5.036C8.80147 5.06096 9.06679 4.93331 9.219 4.70499ZM3.42841 12.7551C3.30482 12.5843 3.20347 12.403 3.12018 12.2272C2.87088 11.7009 2.71675 11.0846 2.61813 10.5257C2.51831 9.96006 2.46917 9.41638 2.44473 9.01716C2.43245 8.8166 2.42627 8.65025 2.42316 8.533C2.4216 8.47433 2.42081 8.42782 2.4204 8.39533L2.42004 8.35729L2.41999 8.34655L2.41998 8.34333V8.34227V8.34187C2.41998 8.34172 2.41998 8.34157 3.11998 8.34157H2.41998C2.41998 5.51346 4.84837 3.29581 7.66488 3.55186L8.28186 3.60795C9.67199 1.77047 11.9363 0.783525 14.2461 1.04017L14.3161 1.04795C14.9687 1.12046 15.6071 1.28875 16.2106 1.54741L17.0805 1.92023C18.3869 2.48009 19.5109 3.39368 20.326 4.55803C21.9224 6.83867 22.001 9.85273 20.5255 12.2134L20.4949 12.2625C20.6908 12.3927 20.82 12.6154 20.82 12.8683V13.8113C20.82 15.1542 20.0095 16.3443 18.8015 16.8527C18.557 20.0149 15.9171 22.5416 12.6853 22.5416H11.5547C8.32284 22.5416 5.68297 20.0149 5.43847 16.8527C4.23045 16.3443 3.41998 15.1542 3.41998 13.8113V12.866C3.41998 12.8283 3.42286 12.7913 3.42841 12.7551ZM6.5246 10.0019C6.63774 8.41789 8.27375 7.36961 9.79073 7.92123C10.5605 8.20116 11.1506 8.85005 11.3473 9.63715L11.4248 9.94715C11.5362 10.3926 12.015 10.6375 12.4414 10.4669L13.6412 9.98701C14.5465 9.62487 15.3689 9.08262 16.0584 8.39314L16.0619 8.38956L17.1266 9.72038C17.3449 9.99323 17.4896 10.3175 17.5471 10.6621L17.6873 11.5035C17.8451 12.4501 18.535 13.1932 19.42 13.4472V13.8113C19.42 14.6833 18.8265 15.4434 17.9805 15.6549C17.6472 15.7382 17.42 16.0375 17.42 16.373C17.42 18.9936 15.2945 21.1416 12.6853 21.1416H11.5547C8.94543 21.1416 6.81998 18.9936 6.81998 16.373C6.81998 16.0375 6.59281 15.7382 6.25945 15.6549C5.41347 15.4434 4.81998 14.6833 4.81998 13.8113V13.4399C5.6979 13.1683 6.35466 12.381 6.42334 11.4196L6.5246 10.0019ZM14.0342 15.7088C14.0889 15.7235 14.1774 15.7044 14.2513 15.6813C15.6304 15.239 16.5775 14.7171 16.8188 13.8166C17.0257 13.0444 16.6377 12.3631 15.9666 12.1833C15.5479 12.0711 15.1724 12.2185 14.89 12.515C14.7952 12.1197 14.5422 11.8016 14.1256 11.69C13.4544 11.5102 12.7756 11.9056 12.5687 12.6778C12.3275 13.5783 12.8868 14.5039 13.8599 15.5764C13.9123 15.6333 13.9816 15.6947 14.0342 15.7088ZM10.2301 15.5763C10.1777 15.6332 10.1105 15.694 10.0558 15.7087C10.0032 15.7228 9.91257 15.7042 9.83874 15.6812C8.45965 15.2389 7.51249 14.7169 7.2712 13.8164C7.06429 13.0443 7.45439 12.3624 8.12556 12.1826C8.54215 12.071 8.92033 12.22 9.20004 12.5148C9.29638 12.1169 9.54786 11.8015 9.96656 11.6893C10.6377 11.5095 11.3144 11.9055 11.5213 12.6776C11.7626 13.5781 11.2033 14.5037 10.2301 15.5763Z" fill="#0A0A0A"/>
</svg>
