<svg width="32" height="32" viewBox="0 0 32 32" fill="none" xmlns="http://www.w3.org/2000/svg">
<path d="M22.246 27.236C18.8584 27.236 14.7666 25.0019 11.0269 21.2743C7.27502 17.5225 5.06519 13.4185 5.06519 10.0066C5.06519 8.08822 5.62371 6.67975 6.93504 5.46556C7.02004 5.39271 7.09289 5.31986 7.16574 5.25915C7.94282 4.53063 8.75633 4.16637 9.49699 4.17852C10.2862 4.2028 11.0147 4.62777 11.6461 5.55055L14.0745 9.07171C14.7666 10.0674 14.8759 11.2451 13.8438 12.3015L12.9696 13.1878C12.7025 13.4549 12.6539 13.7464 12.836 14.0742C13.3217 14.9241 14.1231 15.8348 15.2523 16.964C16.2843 17.996 17.6321 19.1009 18.227 19.4652C18.5549 19.6473 18.8463 19.5988 19.1134 19.3316L19.9998 18.4574C21.0561 17.4254 22.2339 17.5346 23.2295 18.2267L26.7507 20.6551C27.6735 21.2865 28.1227 22.015 28.1227 22.8042C28.1227 23.5449 27.7706 24.3463 27.0421 25.1355C26.9814 25.2083 26.9085 25.2812 26.8357 25.3662C25.6093 26.6896 24.1887 27.236 22.246 27.236ZM22.2582 25.7669C23.6302 25.7547 24.8322 25.2933 25.7429 24.3098C25.7915 24.237 25.8279 24.2006 25.8886 24.1277C26.3014 23.6785 26.5078 23.2292 26.5078 22.8285C26.5078 22.44 26.35 22.1121 25.9493 21.8572L22.4403 19.5016C21.991 19.1981 21.4811 19.1495 20.9833 19.6473L19.9998 20.643C19.2712 21.3715 18.3363 21.3472 17.6078 20.8494C16.7579 20.2666 15.3615 19.0767 14.2566 17.9596C13.1639 16.8547 12.0347 15.5434 11.4518 14.6934C10.954 13.9649 10.9297 13.03 11.6583 12.3015L12.6539 11.318C13.1517 10.8202 13.1031 10.3102 12.7996 9.86094L10.4441 6.35192C10.1891 5.95124 9.86125 5.79339 9.4727 5.79339C9.08416 5.79339 8.62277 5.99981 8.17352 6.41263C8.11281 6.4612 8.06424 6.50977 7.99139 6.55833C7.00789 7.46898 6.5465 8.65889 6.53436 10.0066C6.49793 13.115 8.90203 17.0854 12.1075 20.2787C15.2887 23.472 19.162 25.8033 22.2582 25.7669Z" fill="#767779"/>
</svg>
