<svg width="32" height="32" viewBox="0 0 32 32" fill="none" xmlns="http://www.w3.org/2000/svg">
<path d="M11.3216 21.0437C7.934 17.6561 5.31135 13.4792 5.31135 10.0066C5.31135 8.46462 5.82131 7.06829 6.98693 5.9391C7.70331 5.24701 8.51682 4.87061 9.2939 4.87061C9.93742 4.87061 10.5324 5.13773 10.9695 5.73268L13.5071 9.33883C13.8714 9.8488 14.0535 10.298 14.0535 10.7352C14.0535 11.2694 13.7621 11.7794 13.2279 12.3622L12.3658 13.2728C12.2322 13.4064 12.1837 13.5521 12.1837 13.7099C12.1837 13.8556 12.2444 14.0135 12.3051 14.147C12.6572 14.8877 13.7257 16.1747 14.952 17.4132C16.1905 18.6517 17.4897 19.6838 18.2061 20.0602C18.3396 20.1209 18.5096 20.1816 18.6796 20.1816C18.8375 20.1816 19.0074 20.133 19.1289 19.9994L20.0152 19.1374C20.5859 18.591 21.0959 18.2996 21.6301 18.2996C22.0672 18.2996 22.5165 18.4938 23.0143 18.846L26.7297 21.4565C27.3125 21.8693 27.5432 22.4278 27.5432 23.0106C27.5432 23.8242 27.0697 24.6741 26.4504 25.3298C25.3455 26.5318 23.9735 27.0782 22.395 27.0782C18.9103 27.0782 14.6971 24.4191 11.3216 21.0437Z" fill="#0A0A0A"/>
</svg>
