<svg width="18" height="12" viewBox="0 0 18 12" fill="none" xmlns="http://www.w3.org/2000/svg">
<path fill-rule="evenodd" clip-rule="evenodd" d="M16 12C17.1046 12 18 11.1046 18 10V2C18 0.895431 17.1046 0 16 0H0L3.61762 3.73067C3.97946 4.10382 4.18182 4.60318 4.18182 5.12296V10C4.18182 11.1046 5.07725 12 6.18182 12H16ZM6.00003 4C6.00003 3.44772 6.44774 3 7.00003 3H14C14.5523 3 15 3.44772 15 4C15 4.55228 14.5523 5 14 5H7.00003C6.44774 5 6.00003 4.55228 6.00003 4ZM7.00003 6C6.44774 6 6.00003 6.44772 6.00003 7C6.00003 7.55228 6.44774 8 7.00003 8H11C11.5523 8 12 7.55228 12 7C12 6.44772 11.5523 6 11 6H7.00003Z" fill="#CEFECF"/>
</svg>
