<svg width="32" height="22" viewBox="0 0 32 22" fill="none" xmlns="http://www.w3.org/2000/svg">
<path fill-rule="evenodd" clip-rule="evenodd" d="M4.64634 20.6823L4.6431 20.6869L4.6429 20.6872C4.47569 20.9218 4.4535 21.2302 4.58542 21.4863C4.71739 21.7426 4.98145 21.9036 5.26967 21.9036H5.2705H5.27139L5.27333 21.9036L5.27789 21.9036L5.28969 21.9034C5.29875 21.9033 5.31016 21.903 5.32386 21.9025C5.35126 21.9016 5.38783 21.8998 5.43302 21.8967C5.5234 21.8903 5.64835 21.8781 5.80344 21.8548C6.11359 21.8082 6.5447 21.7171 7.0607 21.5393C8.08852 21.185 9.44256 20.49 10.8406 19.134C11.2203 19.1629 11.6051 19.1777 11.9941 19.1777C18.435 19.1777 23.9881 15.0472 23.9881 9.58884C23.9881 4.13049 18.435 0 11.9941 0C5.55318 0 0 4.13049 0 9.58884C0 12.6822 1.81592 15.375 4.52579 17.0979C4.85457 17.3069 5.19703 17.5021 5.55177 17.6826C5.67834 17.747 5.74108 17.8284 5.75153 18.0455C5.76427 18.3102 5.67934 18.6784 5.50898 19.1041C5.34444 19.5153 5.12803 19.9127 4.9477 20.2132C4.85852 20.3618 4.78039 20.4831 4.72529 20.5661C4.69779 20.6076 4.67616 20.6393 4.66192 20.6599L4.65623 20.6681L4.64634 20.6823ZM20.2991 18.7749C20.0888 18.7749 19.8796 18.7702 19.6715 18.7609C23.4886 16.8837 26.1031 13.5503 26.1031 9.59905C26.1031 5.858 23.7594 2.67083 20.2702 0.74905L20.2991 0.749021C26.3288 0.749021 31.5557 4.61821 31.5557 9.76196C31.5557 12.6761 29.845 15.2076 27.3023 16.8241C27.0158 17.0063 26.3976 17.3856 26.0495 17.5628C25.9767 17.5998 25.9451 17.6256 25.9413 17.771C25.9361 17.9723 26.0111 18.2718 26.1715 18.6368C26.3249 18.9861 26.5248 19.3251 26.692 19.583C26.7745 19.7102 26.8465 19.8139 26.8972 19.8847C26.9224 19.9201 26.9422 19.947 26.9552 19.9644L26.9692 19.9832L26.9718 19.9866L26.972 19.9869C27.1539 20.2244 27.1853 20.5445 27.053 20.8127C26.9206 21.0811 26.6473 21.2511 26.348 21.2511C25.544 21.2511 24.66 20.8342 23.9149 20.389C23.1349 19.9229 22.3597 19.3333 21.7376 18.824C21.6897 18.7848 21.6267 18.7623 21.5602 18.7634C21.1188 18.7707 20.4811 18.7749 20.2991 18.7749Z" fill="#0A0A0A"/>
</svg>
