<svg width="32" height="32" viewBox="0 0 32 32" fill="none" xmlns="http://www.w3.org/2000/svg">
<g clip-path="url(#clip0_2119_1237)">
<path fill-rule="evenodd" clip-rule="evenodd" d="M1.79998 15.1669C1.79998 10.7151 6.47468 6.8002 12.6666 6.8002C18.8586 6.8002 23.5333 10.7151 23.5333 15.1669C23.5333 19.6187 18.8586 23.5335 12.6666 23.5335C12.2894 23.5335 11.9169 23.5187 11.5499 23.4897C11.1145 23.4554 10.6897 23.613 10.3815 23.9119C9.10111 25.1538 7.81296 25.766 6.85745 26.0693C6.80691 26.0853 6.7573 26.1005 6.70865 26.1148C6.7933 25.9138 6.87837 25.7016 6.95842 25.4856C7.15244 24.9623 7.33638 24.3669 7.39416 23.8404C7.42283 23.5793 7.42755 23.2777 7.34996 22.9895C7.26796 22.6849 7.07722 22.3475 6.69612 22.1536C6.372 21.9886 6.06042 21.8109 5.76253 21.6215C3.2926 20.0512 1.79998 17.7111 1.79998 15.1669ZM4.6264 26.7923L4.62573 26.7936L4.62571 26.7936L4.62569 26.7937C4.49492 27.0416 4.50348 27.34 4.64826 27.58C4.79305 27.8201 5.05295 27.9669 5.33332 27.9669V27.1669C5.33332 27.9669 5.33369 27.9669 5.33409 27.9669L5.33492 27.9669L5.33679 27.9669L5.34133 27.9668L5.35354 27.9667C5.36305 27.9665 5.37533 27.9663 5.39026 27.9658C5.42012 27.9649 5.46065 27.9632 5.51111 27.96C5.61201 27.9537 5.75284 27.9414 5.92773 27.9178C6.27729 27.8705 6.76444 27.7774 7.34147 27.5943C8.49014 27.2297 9.99255 26.5086 11.4668 25.0881C11.8618 25.1182 12.2621 25.1335 12.6666 25.1335C14.3802 25.1335 16.0333 24.8523 17.5447 24.3386C18.4415 24.5183 19.3793 24.6135 20.3438 24.6135C20.4704 24.6135 20.5966 24.6118 20.7223 24.6086C20.7922 24.6068 20.8501 24.6293 20.89 24.6625C22.1111 25.6765 24.1029 27.2146 26.5247 27.1398C26.7966 27.1314 27.0455 26.9855 27.1857 26.7523C27.3257 26.5192 27.3378 26.231 27.2178 25.987L27.2178 25.9869L27.2177 25.9869L27.2177 25.9868L27.2173 25.9861L27.2148 25.9809L27.2035 25.9575C27.1933 25.9363 27.178 25.9043 27.1586 25.8627C27.1198 25.7796 27.0647 25.6592 27.0011 25.5128C26.873 25.2179 26.7145 24.8273 26.5846 24.4295C26.4508 24.0197 26.365 23.6544 26.351 23.3939C26.3489 23.3558 26.3485 23.3244 26.3489 23.2989C26.7102 23.1014 27.2179 22.7891 27.4712 22.6281C30.0589 20.983 31.8 18.4066 31.8 15.4408C31.8 10.2058 26.4804 6.26807 20.3438 6.26807C19.7402 6.26807 19.1471 6.30534 18.568 6.37728L18.5694 6.38821C16.7946 5.62659 14.7765 5.2002 12.6666 5.2002C5.97197 5.2002 0.199982 9.49344 0.199982 15.1669C0.199982 18.3821 2.08746 21.181 4.9041 22.9718C5.19701 23.158 5.50036 23.3337 5.81324 23.4982C5.8137 23.5392 5.81157 23.5944 5.80372 23.6658C5.76776 23.9934 5.63919 24.4413 5.45821 24.9294C5.28161 25.4058 5.07327 25.8729 4.907 26.2245C4.82432 26.3993 4.75308 26.5433 4.70286 26.643C4.67777 26.6928 4.65798 26.7314 4.64471 26.7571L4.62986 26.7857L4.6264 26.7923ZM21.2009 7.89585C23.6015 9.68773 25.1333 12.2442 25.1333 15.1669C25.1333 18.4186 23.2372 21.217 20.3579 23.0135C20.466 23.0134 20.5736 23.0119 20.6808 23.0091C21.12 22.9977 21.5603 23.1394 21.9122 23.4316C22.853 24.2128 23.9762 25.0482 25.2249 25.3867C25.1697 25.2383 25.115 25.0834 25.0636 24.9261C24.9166 24.4757 24.7787 23.9517 24.7533 23.4798C24.7323 23.0899 24.7691 22.3108 25.4705 21.9539C25.749 21.8121 26.3202 21.4639 26.6128 21.2779C28.8537 19.8532 30.2 17.7355 30.2 15.4408C30.2 11.6337 26.4005 8.23511 21.2009 7.89585ZM26.3593 23.2052C26.3587 23.2045 26.3564 23.2104 26.3541 23.225C26.3587 23.2133 26.3598 23.206 26.3593 23.2052Z" fill="#767779"/>
</g>
<defs>
<clipPath id="clip0_2119_1237">
<rect width="32" height="32" fill="white"/>
</clipPath>
</defs>
</svg>
