<svg width="24" height="24" viewBox="0 0 24 24" fill="none" xmlns="http://www.w3.org/2000/svg">
<path fill-rule="evenodd" clip-rule="evenodd" d="M5.40323 6.13333C3.76178 7.32949 2.80009 8.97112 2.80009 10.8477C2.80009 12.9904 4.05713 14.9635 6.14169 16.2888C6.39308 16.4487 6.65604 16.5986 6.9296 16.7378C7.25943 16.9057 7.42407 17.1975 7.49463 17.4597C7.56133 17.7075 7.55709 17.9659 7.53268 18.1882C7.48348 18.6364 7.32707 19.1423 7.16273 19.5855C7.10086 19.7524 7.03547 19.9167 6.97004 20.0735C6.9959 20.0656 7.02208 20.0575 7.04855 20.0491C7.85402 19.7935 8.94053 19.2772 10.0208 18.2294C10.2862 17.972 10.6521 17.8362 11.0272 17.8658C11.3371 17.8902 11.6517 17.9028 11.9702 17.9028C17.2014 17.9028 21.1403 14.5962 21.1403 10.8477C21.1403 8.97112 20.1786 7.32949 18.5372 6.13333C16.8887 4.93205 14.5714 4.1998 11.9702 4.1998C9.36901 4.1998 7.05172 4.93205 5.40323 6.13333ZM5.14699 20.6732L5.14754 20.6722L5.15045 20.6666L5.16296 20.6425C5.17416 20.6208 5.19086 20.5882 5.21205 20.5462C5.25446 20.462 5.31465 20.3403 5.3845 20.1926C5.525 19.8955 5.70096 19.501 5.85005 19.0988C6.00297 18.6864 6.11094 18.3096 6.14104 18.0354C6.1465 17.9857 6.14882 17.9441 6.14901 17.9101C5.88812 17.7725 5.63506 17.6257 5.39057 17.4703C3.00263 15.9521 1.40009 13.5775 1.40009 10.8477C1.40009 8.44121 2.6479 6.40891 4.57872 5.00188C6.50251 3.59998 9.12029 2.7998 11.9702 2.7998C14.8201 2.7998 17.4379 3.59998 19.3617 5.00188C21.2925 6.40891 22.5403 8.44121 22.5403 10.8477C22.5403 15.6652 17.6413 19.3028 11.9702 19.3028C11.6309 19.3028 11.2952 19.29 10.9638 19.265C9.71597 20.4649 8.4448 21.0748 7.47206 21.3835C6.98247 21.5389 6.56902 21.6179 6.27212 21.658C6.12358 21.6781 6.00389 21.6886 5.91801 21.694C5.87506 21.6967 5.84052 21.6982 5.81501 21.6989L5.78359 21.6997L5.77308 21.6998L5.76916 21.6998L5.76753 21.6998H5.76681C5.76646 21.6998 5.76613 21.6998 5.76613 20.9998V21.6998C5.52082 21.6998 5.2934 21.5714 5.16671 21.3613C5.04004 21.1513 5.03254 20.8903 5.14693 20.6733L5.14696 20.6733L5.14699 20.6732Z" fill="#0A0A0A"/>
</svg>
