<svg width="32" height="32" viewBox="0 0 32 32" fill="none" xmlns="http://www.w3.org/2000/svg">
<path fill-rule="evenodd" clip-rule="evenodd" d="M6.28 25.9212L6.27718 25.9257C6.13116 26.1541 6.11161 26.4548 6.22681 26.7042C6.34205 26.9539 6.57263 27.1107 6.82432 27.1107H6.82582H6.82752H6.8315L6.8418 27.1105C6.84971 27.1104 6.85968 27.1101 6.87164 27.1096C6.89557 27.1087 6.9275 27.107 6.96696 27.104C7.04588 27.0977 7.155 27.0858 7.29043 27.0631C7.56126 27.0178 7.93772 26.929 8.38831 26.7559C9.28584 26.4108 10.4682 25.7339 11.6891 24.4132C12.0206 24.4413 12.3566 24.4557 12.6963 24.4557C18.3208 24.4557 23.1699 20.4328 23.1699 15.1165C23.1699 9.80029 18.3208 5.77734 12.6963 5.77734C7.07189 5.77734 2.22266 9.80029 2.22266 15.1165C2.22266 18.1294 3.80838 20.7521 6.17474 22.4301C6.46184 22.6337 6.76089 22.8238 7.07066 22.9996C7.18118 23.0623 7.23597 23.1416 7.2451 23.353C7.25622 23.6108 7.18206 23.9694 7.03329 24.3841C6.88961 24.7846 6.70063 25.1716 6.54316 25.4643C6.46529 25.609 6.39706 25.7272 6.34895 25.808C6.32493 25.8484 6.30604 25.8793 6.29361 25.8994L6.28864 25.9073L6.28 25.9212ZM19.9486 24.0634C19.7649 24.0634 19.5822 24.0589 19.4005 24.0498C22.7337 22.2215 25.0168 18.9749 25.0168 15.1265C25.0168 11.4828 22.9702 8.37864 19.9233 6.50689L19.9486 6.50686C25.2139 6.50686 29.7782 10.2753 29.7782 15.2851C29.7782 18.1234 28.2844 20.589 26.064 22.1634C25.8138 22.3409 25.274 22.7103 24.97 22.8829C24.9064 22.9189 24.8788 22.9441 24.8755 23.0857C24.871 23.2817 24.9365 23.5734 25.0765 23.9289C25.2105 24.2691 25.3851 24.5993 25.5311 24.8505C25.6031 24.9744 25.666 25.0754 25.7102 25.1443C25.7322 25.1788 25.7495 25.205 25.7609 25.222L25.7731 25.2403L25.7754 25.2436C25.9342 25.4749 25.9618 25.787 25.8463 26.0482C25.7307 26.3096 25.492 26.4752 25.2307 26.4752C24.5286 26.4752 23.7566 26.0691 23.106 25.6355C22.4249 25.1815 21.7479 24.6073 21.2047 24.1113C21.1629 24.0731 21.1079 24.0512 21.0498 24.0522C20.6643 24.0593 20.1075 24.0634 19.9486 24.0634Z" fill="#FFF2F2"/>
</svg>
