<svg width="17" height="17" viewBox="0 0 17 17" fill="none" xmlns="http://www.w3.org/2000/svg">
<path fill-rule="evenodd" clip-rule="evenodd" d="M10.8217 4.62185C10.9741 4.32565 10.9022 3.95318 10.6323 3.73658C10.3626 3.5203 9.98404 3.53074 9.72789 3.74314L9.62616 3.8474L3.9419 10.9288L2.00586 8.99393C1.72636 8.71469 1.27328 8.71443 0.993822 8.99373C0.714293 9.27326 0.714815 9.72688 0.994352 10.0064L3.49445 12.5062C3.63825 12.6499 3.83648 12.7257 4.03945 12.7147C4.24237 12.7035 4.43114 12.6065 4.55836 12.448L10.7431 4.74273L10.8217 4.62185ZM14.9076 4.62154C15.0599 4.32542 14.9886 3.95351 14.7189 3.73692C14.4492 3.52046 14.0707 3.53106 13.8145 3.74348L13.712 3.84709L8.02777 10.9285L7.59248 10.4936C7.31293 10.2143 6.85926 10.2147 6.5798 10.4941C6.33541 10.7387 6.30518 11.1162 6.48855 11.394L6.58033 11.5068L7.58032 12.5059C7.72414 12.6498 7.92222 12.7254 8.12531 12.7144C8.32836 12.7032 8.51694 12.6063 8.64423 12.4477L14.829 4.74242L14.9076 4.62154Z" fill="#007BFC"/>
</svg>
