<svg width="24" height="24" viewBox="0 0 24 24" fill="none" xmlns="http://www.w3.org/2000/svg">
<path d="M10.5802 3.11133C12.5526 2.79808 14.5737 3.15007 16.3243 4.11133C18.0747 5.07259 19.4559 6.58859 20.2501 8.4209C21.0442 10.2532 21.2064 12.2978 20.711 14.2324C20.2156 16.167 19.0908 17.8823 17.5138 19.1074C15.9366 20.3326 13.9962 20.9984 11.9991 21H2.20126L2.20517 20.9961L4.26474 18.626L4.26376 18.625C4.69579 18.1304 4.76719 17.3973 4.39365 16.8242H4.39462C3.32416 15.1382 2.84492 13.1436 3.03232 11.1553C3.21977 9.16707 4.06323 7.29805 5.42978 5.8418C6.79632 4.38557 8.6079 3.42463 10.5802 3.11133Z" stroke="white" stroke-width="2"/>
<rect x="16.5099" y="12.8687" width="9" height="2" rx="1" transform="rotate(179.245 16.5099 12.8687)" fill="white"/>
<rect x="12.8689" y="7" width="9.31514" height="2" rx="1" transform="rotate(89.4493 12.8689 7)" fill="white"/>
</svg>
