<svg width="56" height="41" viewBox="0 0 56 41" fill="none" xmlns="http://www.w3.org/2000/svg">
<path d="M13 2H42.041C48.1161 2 53.041 6.92487 53.041 13V28C53.041 34.0751 48.1161 39 42.041 39H13C6.92487 39 2 34.0751 2 28V13C2 6.92487 6.92487 2 13 2Z" stroke="black" stroke-width="4"/>
<path d="M17.2238 21.8311L22.0402 22.5307L17.9742 26.8285L17.2238 21.8311Z" fill="black"/>
<path d="M35.0681 19.3477C35.0681 19.3477 27.5309 5.56955 18.6817 19.6715" stroke="#010101" stroke-width="3"/>
<path d="M36.9301 22.7635L32.225 21.4842L36.7455 17.7092L36.9301 22.7635Z" fill="black"/>
<path d="M19.3486 23.9922C19.3486 23.9922 26.6105 37.9293 35.738 24.0206" stroke="#010101" stroke-width="3"/>
</svg>
