<svg width="24" height="24" viewBox="0 0 24 24" fill="none" xmlns="http://www.w3.org/2000/svg">
<path d="M13 2.5C13.9283 2.5 14.8182 2.86901 15.4746 3.52539C16.131 4.18177 16.5 5.07174 16.5 6C16.5 6.92826 16.131 7.81823 15.4746 8.47461C14.8182 9.13099 13.9283 9.5 13 9.5C12.0717 9.5 11.1818 9.13099 10.5254 8.47461C9.86901 7.81823 9.5 6.92826 9.5 6C9.5 5.07174 9.86901 4.18177 10.5254 3.52539C11.1818 2.86901 12.0717 2.5 13 2.5Z" stroke="black"/>
<path d="M4.25 3.5C4.64916 3.5 5.02097 3.83221 5.08398 4.31445V4.31348C5.64708 8.89242 9.14295 12.5 13 12.5H14C15.9891 12.5 17.8972 13.2898 19.3037 14.6963C20.7102 16.1028 21.5 18.0109 21.5 20C21.5 20.3978 21.3419 20.7792 21.0605 21.0605C20.8258 21.2953 20.5209 21.4415 20.1953 21.4844C19.8757 20.6665 19.4273 19.9045 18.8643 19.2295L18.8623 19.2305C18.6433 18.9575 18.2942 18.8856 18.0049 19.0215C17.7635 19.1349 17.5966 19.3781 17.5879 19.6611L17.5938 19.7852L17.8086 21.5H9C8.60218 21.5 8.22076 21.3419 7.93945 21.0605C7.65815 20.7792 7.5 20.3978 7.5 20V17.7803C7.5 16.0699 6.77143 14.4916 5.88867 13.1367C4.44026 10.854 3.6224 8.23204 3.5127 5.53711L3.5 4.99707V4.25C3.5 3.83614 3.83614 3.5 4.25 3.5Z" stroke="black"/>
</svg>
