<svg width="32" height="32" viewBox="0 0 32 32" fill="none" xmlns="http://www.w3.org/2000/svg">
<path fill-rule="evenodd" clip-rule="evenodd" d="M4.87338 26.2197L4.87663 26.215C4.87891 26.2118 4.88223 26.207 4.88652 26.2009C4.88826 26.1984 4.89015 26.1956 4.89221 26.1926C4.90645 26.172 4.92808 26.1403 4.95558 26.0988C5.01068 26.0158 5.08881 25.8946 5.17798 25.746C5.35832 25.4454 5.57473 25.0481 5.73927 24.6369C5.90963 24.2111 5.99456 23.843 5.98182 23.5782C5.97137 23.3611 5.90862 23.2797 5.78206 23.2153C5.42732 23.0348 5.08486 22.8396 4.75608 22.6306C2.04621 20.9077 0.230286 18.2149 0.230286 15.1216C0.230286 9.66321 5.78347 5.53271 12.2244 5.53271C18.6652 5.53271 24.2184 9.66321 24.2184 15.1216C24.2184 20.5799 18.6652 24.7104 12.2244 24.7104C11.8354 24.7104 11.4506 24.6956 11.0708 24.6667C9.67284 26.0227 8.31881 26.7177 7.29098 27.072C6.77498 27.2498 6.34388 27.3409 6.03372 27.3875C5.87864 27.4108 5.75368 27.423 5.66331 27.4294C5.61812 27.4326 5.58154 27.4343 5.55414 27.4352C5.54044 27.4357 5.52903 27.436 5.51998 27.4361L5.50818 27.4363L5.50362 27.4363L5.50167 27.4363H5.50079C5.49945 27.4363 5.49996 27.4363 5.49996 27.4363C5.21174 27.4363 4.94767 27.2753 4.8157 27.0191C4.68378 26.7629 4.70597 26.4546 4.87318 26.2199L4.87338 26.2197Z" fill="#00C357"/>
<line x1="21.1666" y1="16" x2="21.1666" y2="26" stroke="white" stroke-width="2"/>
<line x1="16" y1="21" x2="26" y2="21" stroke="white" stroke-width="2"/>
</svg>
