<svg width="32" height="32" viewBox="0 0 32 32" fill="none" xmlns="http://www.w3.org/2000/svg">
<g clip-path="url(#clip0_2202_5183)">
<path fill-rule="evenodd" clip-rule="evenodd" d="M11.3666 10.4167C11.3666 7.70732 13.3654 5.3667 16 5.3667C18.6346 5.3667 20.6333 7.70732 20.6333 10.4167C20.6333 13.1261 18.6346 15.4667 16 15.4667C13.3654 15.4667 11.3666 13.1261 11.3666 10.4167ZM8.84297 20.0123C10.3926 18.6119 12.6811 17.5334 16 17.5334C19.3189 17.5334 21.6074 18.6119 23.157 20.0123C24.6897 21.3974 25.4476 23.0493 25.8086 24.1357C26.1997 25.3123 25.247 26.3 24.1841 26.3H7.81587C6.75293 26.3 5.80031 25.3123 6.19135 24.1357C6.5524 23.0493 7.31031 21.3974 8.84297 20.0123ZM25.6666 8.8667C23.7529 8.8667 22.3666 10.5904 22.3666 12.5C22.3666 14.4096 23.7529 16.1334 25.6666 16.1334C27.5803 16.1334 28.9666 14.4096 28.9666 12.5C28.9666 10.5904 27.5803 8.8667 25.6666 8.8667ZM27.4838 24.8H30.2508C31.0837 24.8 31.8672 24.0982 31.7259 23.139C31.6085 22.3429 31.2948 21.0402 30.4275 19.9211C29.5304 18.7635 28.088 17.8667 25.8788 17.8667C24.995 17.8667 24.2394 18.0232 23.5965 18.289C24.1363 18.7148 24.6197 19.1776 25.0517 19.6619C25.818 20.5211 26.4175 21.4418 26.8852 22.3334C27.2703 23.0674 27.4233 24.0741 27.4838 24.8ZM8.35544 18.3283C7.83551 18.7432 7.36842 19.1924 6.94968 19.6619C6.18331 20.5211 5.58382 21.4419 5.11611 22.3334C4.7311 23.0674 4.57808 24.0741 4.5176 24.8H1.75C0.915904 24.8 0.136933 24.0989 0.271016 23.1441C0.382193 22.3523 0.679584 21.0537 1.50472 19.9359C2.35994 18.7773 3.74643 17.8667 5.87805 17.8667C6.84437 17.8667 7.66399 18.0383 8.35544 18.3283ZM3.03331 12.5C3.03331 10.5904 4.41962 8.8667 6.33331 8.8667C8.24701 8.8667 9.63332 10.5904 9.63332 12.5C9.63332 14.4096 8.24701 16.1334 6.33331 16.1334C4.41962 16.1334 3.03331 14.4096 3.03331 12.5Z" fill="#0A0A0A"/>
</g>
<defs>
<clipPath id="clip0_2202_5183">
<rect width="32" height="32" fill="white"/>
</clipPath>
</defs>
</svg>
