<svg width="24" height="24" viewBox="0 0 24 24" fill="none" xmlns="http://www.w3.org/2000/svg">
<path fill-rule="evenodd" clip-rule="evenodd" d="M12 4.6998C7.96837 4.6998 4.70005 7.96813 4.70005 11.9998C4.70005 16.0315 7.96837 19.2998 12 19.2998C16.0317 19.2998 19.3 16.0315 19.3 11.9998C19.3 7.96813 16.0317 4.6998 12 4.6998ZM3.30005 11.9998C3.30005 7.19493 7.19517 3.2998 12 3.2998C16.8049 3.2998 20.7001 7.19493 20.7001 11.9998C20.7001 16.8047 16.8049 20.6998 12 20.6998C7.19517 20.6998 3.30005 16.8047 3.30005 11.9998ZM12.4501 10.3006C12.8367 10.3006 13.1501 10.614 13.1501 11.0006V15.2998H14.35C14.7366 15.2998 15.05 15.6132 15.05 15.9998C15.05 16.3864 14.7366 16.6998 14.35 16.6998H12.4835C12.4724 16.7003 12.4613 16.7006 12.4501 16.7006C12.4389 16.7006 12.4278 16.7003 12.4167 16.6998H10.35C9.96341 16.6998 9.65001 16.3864 9.65001 15.9998C9.65001 15.6132 9.96341 15.2998 10.35 15.2998H11.7501V11.7006L10.9 11.7006C10.5134 11.7006 10.2 11.3872 10.2 11.0006C10.2 10.614 10.5134 10.3006 10.9 10.3006H12.4501ZM12.05 8.99999C12.7404 8.99999 13.3 8.44034 13.3 7.74999C13.3 7.05963 12.7404 6.49999 12.05 6.49999C11.3597 6.49999 10.8 7.05963 10.8 7.74999C10.8 8.44034 11.3597 8.99999 12.05 8.99999Z" fill="#0A0A0A"/>
</svg>
