<svg width="26" height="26" viewBox="0 0 26 26" fill="none" xmlns="http://www.w3.org/2000/svg">
<path fill-rule="evenodd" clip-rule="evenodd" d="M13 4.27936C8.18363 4.27936 4.27918 8.18381 4.27918 13.0002C4.27918 17.8166 8.18363 21.721 13 21.721C17.8164 21.721 21.7208 17.8166 21.7208 13.0002C21.7208 8.18381 17.8164 4.27936 13 4.27936ZM2.76251 13.0002C2.76251 7.34618 7.346 2.7627 13 2.7627C18.654 2.7627 23.2375 7.34618 23.2375 13.0002C23.2375 18.6542 18.654 23.2377 13 23.2377C7.346 23.2377 2.76251 18.6542 2.76251 13.0002ZM11.8084 12.6755L12.7293 12.6755V17.1172H11.2125C10.7937 17.1172 10.4542 17.4567 10.4542 17.8755C10.4542 18.2943 10.7937 18.6338 11.2125 18.6338H15.5458C15.9647 18.6338 16.3042 18.2943 16.3042 17.8755C16.3042 17.4567 15.9647 17.1172 15.5458 17.1172H14.2459V11.9172C14.2459 11.5508 13.9861 11.2451 13.6407 11.1743C13.5912 11.1642 13.54 11.1588 13.4876 11.1588H13.4869H11.8084C11.3895 11.1588 11.05 11.4984 11.05 11.9172C11.05 12.336 11.3895 12.6755 11.8084 12.6755ZM13.0542 9.20853C13.8021 9.20853 14.4083 8.60225 14.4083 7.85436C14.4083 7.10648 13.8021 6.5002 13.0542 6.5002C12.3063 6.5002 11.7 7.10648 11.7 7.85436C11.7 8.60225 12.3063 9.20853 13.0542 9.20853Z" fill="#0A0A0A"/>
</svg>
