<svg width="24" height="24" viewBox="0 0 24 24" fill="none" xmlns="http://www.w3.org/2000/svg">
<path fill-rule="evenodd" clip-rule="evenodd" d="M13.4762 20.1834L13.4762 20.1833C13.3237 20.2799 13.1279 20.3932 12.9143 20.4869C12.731 20.5672 12.3944 20.6975 12.0006 20.6975C11.6082 20.6975 11.2697 20.5651 11.0934 20.4884C10.8812 20.3961 10.6835 20.2837 10.525 20.1833L10.516 20.1777L10.516 20.1776C8.2951 18.7473 6.37115 17.2864 4.99484 15.6931C3.60095 14.0795 2.70996 12.2593 2.70996 10.1568C2.70996 6.5981 5.24194 3.88965 8.58652 3.88965C9.96538 3.88965 11.1166 4.39655 12.0006 5.19249C12.8855 4.39475 14.0367 3.88965 15.4225 3.88965C18.7701 3.88965 21.2912 6.60139 21.2912 10.1568C21.2912 12.2593 20.4002 14.0795 19.0063 15.6931C17.63 17.2864 15.7061 18.7473 13.4852 20.1776L13.4762 20.1834ZM12.9161 6.25095C12.5554 6.58029 12.2492 6.98233 12.0006 7.43809C11.754 6.98367 11.4474 6.58135 11.0855 6.25132C10.4269 5.6508 9.58478 5.28965 8.58652 5.28965C6.09434 5.28965 4.10996 7.28965 4.10996 10.1568C4.10996 13.5006 6.90684 16.1881 11.274 19.0006C11.5084 19.149 11.8053 19.2975 12.0006 19.2975C12.2037 19.2975 12.4928 19.149 12.7271 19.0006C17.0943 16.1881 19.8912 13.5006 19.8912 10.1568C19.8912 7.28965 17.9146 5.28965 15.4225 5.28965C14.4174 5.28965 13.5757 5.64877 12.9161 6.25095Z" fill="#0A0A0A"/>
</svg>
