<svg version="1.1" xmlns="http://www.w3.org/2000/svg" viewBox="0 0 1024 1024"><path d="M512.042667 128a183.125333 183.125333 0 0 1 182.912 182.912 182.528 182.528 0 0 1-70.229334 143.786667 305.578667 305.578667 0 0 1 72.106667 41.002666l-0.341333 0.298667a29.781333 29.781333 0 0 1-19.669334 52.309333 29.781333 29.781333 0 0 1-20.266666-7.893333v0.042667a238.336 238.336 0 0 0-144.298667-48.512c-129.749333 0-235.861333 103.893333-240.725333 233.386666l-0.170667 9.344v30.336h251.264l-4.650667 64.213334H237.738667a30.464 30.464 0 0 1-30.208-26.325334l-0.256-4.181333v-60.970667c0-128.256 79.701333-238.08 192.128-283.008a182.613333 182.613333 0 0 1-70.229334-143.786666A183.082667 183.082667 0 0 1 512.042667 128zM330.24 215.722667a30.549333 30.549333 0 0 1-22.528 36.778666 91.136 91.136 0 0 0-69.930667 88.96c0 36.053333 21.333333 68.821333 54.272 83.541334 2.432 1.024 4.693333 2.389333 6.698667 4.010666l2.901333 2.645334 0.896 0.810666c1.877333 2.133333 3.242667 4.48 4.48 7.125334l0.981334 1.877333 1.28 2.986667 0.426666 0.938666c0.298667 1.28 0 2.432 0.128 3.669334a29.44 29.44 0 0 1 0.256 7.082666c-0.170667 1.194667-0.512 2.304-0.810666 3.456-0.426667 1.92-0.426667 3.882667-1.237334 5.717334a30.165333 30.165333 0 0 1-23.722666 17.621333 181.930667 181.930667 0 0 0-137.813334 168.192l-0.170666 8.96v47.189333a30.464 30.464 0 0 1-60.672 4.138667L85.333333 707.285333v-47.146666A242.901333 242.901333 0 0 1 216.405333 443.733333a152.192 152.192 0 0 1-39.637333-102.272 151.978667 151.978667 0 0 1 116.608-148.266666 30.677333 30.677333 0 0 1 36.821333 22.528z m183.722667-23.722667A120.234667 120.234667 0 0 0 393.813333 312.149333a120.234667 120.234667 0 0 0 120.106667 120.106667 120.234667 120.234667 0 0 0 120.106667-120.106667A120.234667 120.234667 0 0 0 513.92 192z"  /><path d="M469.333333 765.013333m32 0l21.333334 0q32 0 32 32l0 0q0 32-32 32l-21.333334 0q-32 0-32-32l0 0q0-32 32-32Z"  /><path d="M768 544a32 32 0 0 1 32 32V682.666667h106.666667a32 32 0 1 1 0 64h-106.666667V853.333333a32 32 0 1 1-64 0v-106.666666h-106.666667a32 32 0 1 1 0-64h106.666667v-106.666667a32 32 0 0 1 32-32z"  /></svg>