<svg width="24" height="24" viewBox="0 0 24 24" fill="none" xmlns="http://www.w3.org/2000/svg">
<path fill-rule="evenodd" clip-rule="evenodd" d="M19.7998 8.09899V8.09961V17.5004H4.2002V8.09961V8.09889C4.2002 7.80797 4.2002 7.63147 4.21094 7.5C4.2185 7.4075 4.22936 7.37252 4.23242 7.36426C4.26118 7.30781 4.30781 7.26118 4.36426 7.23242C4.37252 7.22936 4.40751 7.2185 4.5 7.21094C4.63147 7.2002 4.80797 7.2002 5.09889 7.2002H5.09961H18.9004H18.9011C19.192 7.2002 19.3685 7.2002 19.5 7.21094C19.5925 7.2185 19.6275 7.22936 19.6357 7.23242C19.6922 7.26118 19.7388 7.30781 19.7676 7.36426C19.7706 7.37252 19.7815 7.40751 19.7891 7.5C19.7998 7.63148 19.7998 7.80802 19.7998 8.09899ZM2.7998 17.5004V8.09961C2.7998 7.83129 2.79992 7.58751 2.81641 7.38574C2.83358 7.17591 2.87237 6.95036 2.98535 6.72852C3.14834 6.40864 3.40864 6.14834 3.72852 5.98535C3.95036 5.87237 4.17591 5.83358 4.38574 5.81641C4.58751 5.79992 4.83129 5.7998 5.09961 5.7998H18.9004C19.1687 5.7998 19.4125 5.79992 19.6143 5.81641C19.8241 5.83358 20.0496 5.87237 20.2715 5.98535C20.5914 6.14834 20.8517 6.40864 21.0146 6.72852C21.1276 6.95036 21.1664 7.17591 21.1836 7.38574C21.2001 7.58751 21.2002 7.83129 21.2002 8.09961V17.5004H23C23.5523 17.5004 24 17.9481 24 18.5004C24 19.0527 23.5523 19.5004 23 19.5004H1C0.447715 19.5004 0 19.0527 0 18.5004C0 17.9481 0.447715 17.5004 1 17.5004H2.7998Z" fill="#0A0A0A"/>
</svg>
