<svg width="24" height="24" viewBox="0 0 24 24" fill="none" xmlns="http://www.w3.org/2000/svg">
<path fill-rule="evenodd" clip-rule="evenodd" d="M7.62 2C7.00144 2 6.5 2.50144 6.5 3.12C6.5 3.27464 6.62536 3.4 6.78 3.4H17.22C17.3746 3.4 17.5 3.27464 17.5 3.12C17.5 2.50144 16.9986 2 16.38 2H7.62ZM5 5.62C5 5.00144 5.50144 4.5 6.12 4.5H17.88C18.4986 4.5 19 5.00144 19 5.62C19 5.77464 18.8746 5.9 18.72 5.9H5.28C5.12536 5.9 5 5.77464 5 5.62ZM3.29999 8.9998C3.29999 8.06092 4.0611 7.2998 4.99999 7.2998H19C19.9389 7.2998 20.7 8.06092 20.7 8.9998V18.9998C20.7 19.9387 19.9389 20.6998 19 20.6998H4.99999C4.0611 20.6998 3.29999 19.9387 3.29999 18.9998V8.9998ZM4.99999 8.6998C4.8343 8.6998 4.69999 8.83412 4.69999 8.9998V18.9998C4.69999 19.1655 4.8343 19.2998 4.99999 19.2998H6.12129C6.1977 19.0815 6.30985 18.8674 6.45672 18.6606C6.75825 18.236 7.20021 17.8501 7.75736 17.5251C8.31451 17.2001 8.97595 16.9423 9.7039 16.7664C10.4319 16.5905 11.2121 16.5 12 16.5C12.7879 16.5 13.5681 16.5905 14.2961 16.7664C15.0241 16.9423 15.6855 17.2001 16.2426 17.5251C16.7998 17.8501 17.2417 18.236 17.5433 18.6606C17.6901 18.8674 17.8023 19.0815 17.8787 19.2998H19C19.1657 19.2998 19.3 19.1655 19.3 18.9998V8.9998C19.3 8.83412 19.1657 8.6998 19 8.6998H4.99999ZM14.75 12.25C14.75 13.9069 13.5188 15.25 12 15.25C10.4812 15.25 9.25 13.9069 9.25 12.25C9.25 10.5931 10.4812 9.25 12 9.25C13.5188 9.25 14.75 10.5931 14.75 12.25Z" fill="#0A0A0A"/>
</svg>
