<svg width="32" height="32" viewBox="0 0 32 32" fill="none" xmlns="http://www.w3.org/2000/svg">
<g clip-path="url(#clip0_2178_7310)">
<path fill-rule="evenodd" clip-rule="evenodd" d="M16 6.96719C14.4004 6.96719 12.9667 8.43215 12.9667 10.4172C12.9667 12.4022 14.4004 13.8672 16 13.8672C17.5996 13.8672 19.0333 12.4022 19.0333 10.4172C19.0333 8.43215 17.5996 6.96719 16 6.96719ZM11.3667 10.4172C11.3667 7.7078 13.3654 5.36719 16 5.36719C18.6346 5.36719 20.6333 7.7078 20.6333 10.4172C20.6333 13.1266 18.6346 15.4672 16 15.4672C13.3654 15.4672 11.3667 13.1266 11.3667 10.4172ZM9.91579 21.1998C8.65548 22.3388 8.01768 23.7142 7.70973 24.6408C7.70815 24.6455 7.7072 24.6493 7.70665 24.6521C7.7062 24.6543 7.706 24.656 7.70593 24.6571L7.70738 24.6594L7.709 24.6616C7.7181 24.673 7.75003 24.7005 7.8159 24.7005H24.1841C24.25 24.7005 24.2819 24.673 24.291 24.6616C24.2927 24.6596 24.2936 24.6581 24.2941 24.6571C24.2939 24.6546 24.2931 24.6493 24.2903 24.6408C23.9823 23.7142 23.3445 22.3388 22.0842 21.1998C20.8409 20.0762 18.9392 19.1339 16 19.1339C13.0609 19.1339 11.1592 20.0762 9.91579 21.1998ZM8.843 20.0128C10.3926 18.6124 12.6811 17.5339 16 17.5339C19.3189 17.5339 21.6074 18.6124 23.157 20.0128C24.6897 21.3979 25.4476 23.0498 25.8086 24.1362C26.1997 25.3128 25.2471 26.3005 24.1841 26.3005H7.8159C6.75296 26.3005 5.80034 25.3128 6.19138 24.1362C6.55243 23.0498 7.31034 21.3979 8.843 20.0128ZM23.9667 12.5004C23.9667 11.2804 24.819 10.4671 25.6667 10.4671C26.5144 10.4671 27.3667 11.2804 27.3667 12.5004C27.3667 13.7205 26.5144 14.5338 25.6667 14.5338C24.819 14.5338 23.9667 13.7205 23.9667 12.5004ZM25.6667 8.8671C23.753 8.8671 22.3667 10.5908 22.3667 12.5004C22.3667 14.41 23.753 16.1338 25.6667 16.1338C27.5804 16.1338 28.9667 14.41 28.9667 12.5004C28.9667 10.5908 27.5804 8.8671 25.6667 8.8671ZM27.4838 24.8005H30.25C31.0829 24.8005 31.8665 24.0986 31.7251 23.1394C31.6078 22.3433 31.294 21.0407 30.4268 19.9216C29.5297 18.764 28.0872 17.8671 25.8781 17.8671C24.9945 17.8671 24.239 18.0236 23.5963 18.2892C24.0942 18.6819 24.5441 19.1061 24.9499 19.5496C25.2308 19.4963 25.5391 19.4671 25.8781 19.4671C27.5879 19.4671 28.5652 20.1314 29.1621 20.9016C29.7371 21.6436 29.9988 22.5398 30.1144 23.2005H27.2157C27.3679 23.7518 27.4449 24.3341 27.4838 24.8005ZM4.78576 23.2005H1.88099C1.99125 22.5351 2.24171 21.632 2.79203 20.8865C3.35969 20.1175 4.27762 19.4671 5.87808 19.4671C6.30293 19.4671 6.68255 19.5081 7.02235 19.5816C7.42229 19.1413 7.86541 18.7198 8.35548 18.3287C7.66403 18.0387 6.84441 17.8671 5.87808 17.8671C3.74646 17.8671 2.35997 18.7777 1.50475 19.9363C0.679614 21.0541 0.382224 22.3528 0.271047 23.1445C0.136963 24.0993 0.915936 24.8005 1.75003 24.8005H4.51764C4.55649 24.3341 4.63354 23.7518 4.78576 23.2005ZM6.33335 10.4671C5.48563 10.4671 4.63335 11.2804 4.63335 12.5004C4.63335 13.7205 5.48563 14.5338 6.33335 14.5338C7.18108 14.5338 8.03335 13.7205 8.03335 12.5004C8.03335 11.2804 7.18108 10.4671 6.33335 10.4671ZM3.03335 12.5004C3.03335 10.5908 4.41965 8.8671 6.33335 8.8671C8.24705 8.8671 9.63335 10.5908 9.63335 12.5004C9.63335 14.41 8.24705 16.1338 6.33335 16.1338C4.41965 16.1338 3.03335 14.41 3.03335 12.5004Z" fill="#767779"/>
</g>
<defs>
<clipPath id="clip0_2178_7310">
<rect width="32" height="32" fill="white"/>
</clipPath>
</defs>
</svg>
