<svg width="30" height="30" viewBox="0 0 30 30" fill="none" xmlns="http://www.w3.org/2000/svg">
<g filter="url(#filter0_i_2003_632)">
<path fill-rule="evenodd" clip-rule="evenodd" d="M15 30C23.2843 30 30 23.2843 30 15C30 6.71573 23.2843 0 15 0C6.71573 0 0 6.71573 0 15C0 23.2843 6.71573 30 15 30ZM15 25.3774C20.7312 25.3774 25.3773 20.7313 25.3773 15C25.3773 9.26879 20.7312 4.62269 15 4.62269C9.26872 4.62269 4.62262 9.26879 4.62262 15C4.62262 20.7313 9.26872 25.3774 15 25.3774Z" fill="url(#paint0_linear_2003_632)"/>
</g>
<defs>
<filter id="filter0_i_2003_632" x="0" y="0" width="30" height="30" filterUnits="userSpaceOnUse" color-interpolation-filters="sRGB">
<feFlood flood-opacity="0" result="BackgroundImageFix"/>
<feBlend mode="normal" in="SourceGraphic" in2="BackgroundImageFix" result="shape"/>
<feColorMatrix in="SourceAlpha" type="matrix" values="0 0 0 0 0 0 0 0 0 0 0 0 0 0 0 0 0 0 127 0" result="hardAlpha"/>
<feOffset/>
<feGaussianBlur stdDeviation="0.942453"/>
<feComposite in2="hardAlpha" operator="arithmetic" k2="-1" k3="1"/>
<feColorMatrix type="matrix" values="0 0 0 0 1 0 0 0 0 1 0 0 0 0 1 0 0 0 1 0"/>
<feBlend mode="overlay" in2="shape" result="effect1_innerShadow_2003_632"/>
</filter>
<linearGradient id="paint0_linear_2003_632" x1="30" y1="0" x2="3.57628e-06" y2="30" gradientUnits="userSpaceOnUse">
<stop stop-color="#EFA3E4"/>
<stop offset="0.202701" stop-color="#F082D8"/>
<stop offset="0.397979" stop-color="#036BE4"/>
<stop offset="0.598849" stop-color="#036BE4"/>
<stop offset="0.818009" stop-color="#65F9C2"/>
<stop offset="1" stop-color="#B5F5E2"/>
</linearGradient>
</defs>
</svg>
