<svg width="16" height="23" viewBox="0 0 16 23" fill="none" xmlns="http://www.w3.org/2000/svg">
<path fill-rule="evenodd" clip-rule="evenodd" d="M3.5 4.3C3.5 1.92518 5.42518 0 7.8 0C10.1748 0 12.1 1.92518 12.1 4.3V11.8C12.1 14.1748 10.1748 16.1 7.8 16.1C5.42518 16.1 3.5 14.1748 3.5 11.8V4.3ZM7.8 1.6C6.30883 1.6 5.1 2.80883 5.1 4.3V11.8C5.1 13.2912 6.30883 14.5 7.8 14.5C9.29117 14.5 10.5 13.2912 10.5 11.8V4.3C10.5 2.80883 9.29117 1.6 7.8 1.6ZM0.8 11C1.24183 11 1.6 11.3582 1.6 11.8C1.6 12.6142 1.76037 13.4204 2.07195 14.1726C2.38353 14.9249 2.84021 15.6083 3.41594 16.1841C3.99166 16.7598 4.67514 17.2165 5.42736 17.5281C6.17958 17.8396 6.9858 18 7.8 18C8.61419 18 9.42042 17.8396 10.1726 17.5281C10.9249 17.2165 11.6083 16.7598 12.1841 16.1841C12.7598 15.6083 13.2165 14.9249 13.5281 14.1726C13.8396 13.4204 14 12.6142 14 11.8C14 11.3582 14.3582 11 14.8 11C15.2418 11 15.6 11.3582 15.6 11.8C15.6 12.8243 15.3982 13.8386 15.0063 14.7849C14.6143 15.7313 14.0397 16.5911 13.3154 17.3154C12.5911 18.0397 11.7313 18.6143 10.7849 19.0063C10.086 19.2958 9.35004 19.4815 8.60034 19.5588V22C8.60034 22.4418 8.24217 22.8 7.80034 22.8C7.35851 22.8 7.00034 22.4418 7.00034 22V19.5589C6.2504 19.4816 5.5142 19.2958 4.81507 19.0063C3.86873 18.6143 3.00886 18.0397 2.28457 17.3154C1.56027 16.5911 0.985726 15.7313 0.593739 14.7849C0.201753 13.8386 0 12.8243 0 11.8C0 11.3582 0.358172 11 0.8 11Z" fill="#0A0A0A"/>
</svg>
