<svg width="16" height="16" viewBox="0 0 16 16" fill="none" xmlns="http://www.w3.org/2000/svg">
<path fill-rule="evenodd" clip-rule="evenodd" d="M14.9238 0.906205C14.6895 0.67189 14.3105 0.67189 14.0762 0.906205L10.0996 4.88277V2.33003C10.0996 1.99866 9.83138 1.73042 9.50001 1.73042C9.16864 1.73042 8.9004 1.99866 8.9004 2.33003V6.33003C8.9004 6.6614 9.16864 6.92964 9.50001 6.92964H13.5C13.8314 6.92964 14.0996 6.6614 14.0996 6.33003C14.0996 6.04014 13.8944 5.79815 13.6211 5.74214L13.5 5.73042H10.9473L14.9238 1.75386C15.1582 1.51955 15.1582 1.14052 14.9238 0.906205ZM1 4.32418C1 6.46018 2.61145 9.02937 4.6929 11.1131C6.76689 13.1894 9.35565 14.825 11.4968 14.825C12.4666 14.825 13.3097 14.4889 13.9886 13.7495C14.369 13.3462 14.66 12.8234 14.66 12.323C14.66 11.9645 14.5183 11.621 14.1602 11.367L11.8773 9.76129C11.5714 9.5447 11.2954 9.4252 11.0268 9.4252C10.6985 9.4252 10.3852 9.60445 10.0345 9.94053L9.48994 10.4708C9.41534 10.553 9.31089 10.5828 9.2139 10.5828C9.10946 10.5828 9.00501 10.5455 8.92295 10.5081C8.48279 10.2766 7.68452 9.64179 6.92356 8.88C6.17006 8.11821 5.51354 7.32654 5.29719 6.87096C5.25989 6.7888 5.22259 6.69171 5.22259 6.60209C5.22259 6.505 5.25243 6.41537 5.33449 6.33322L5.86418 5.77308C6.19244 5.41459 6.37149 5.10091 6.37149 4.77229C6.37149 4.50342 6.25958 4.22708 6.03577 3.9134L4.47655 1.69524C4.20797 1.32928 3.84241 1.16497 3.44701 1.16497C2.96955 1.16497 2.4697 1.3965 2.02954 1.82221C1.31334 2.51678 1 3.37567 1 4.32418Z" fill="#767779"/>
</svg>
