<svg width="19" height="18" viewBox="0 0 19 18" fill="none" xmlns="http://www.w3.org/2000/svg">
<path fill-rule="evenodd" clip-rule="evenodd" d="M12 3C11.0959 2.70061 9.52977 2.25 8.5 2.25C4.08172 2.25 0.5 5.27594 0.5 9.00862C0.5 10.466 1.04603 11.8157 1.9747 12.9196L1 17.5L4.91607 15.0527C5.99418 15.5099 7.21152 15.7672 8.5 15.7672C12.9183 15.7672 16.5 12.7413 16.5 9.00862C16.5 8.32386 16 6.5 16 6.5" fill="white"/>
<path d="M12 3C11.0959 2.70061 9.52977 2.25 8.5 2.25C4.08172 2.25 0.5 5.27594 0.5 9.00862C0.5 10.466 1.04603 11.8157 1.9747 12.9196L1 17.5L4.91607 15.0527C5.99418 15.5099 7.21152 15.7672 8.5 15.7672C12.9183 15.7672 16.5 12.7413 16.5 9.00862C16.5 8.32386 16 6.5 16 6.5" stroke="white" stroke-linecap="round" stroke-linejoin="round"/>
<path fill-rule="evenodd" clip-rule="evenodd" d="M16 0.5V4.5Z" fill="white"/>
<path d="M16 0.5V4.5" stroke="white" stroke-linecap="round" stroke-linejoin="round"/>
<path fill-rule="evenodd" clip-rule="evenodd" d="M17.9994 2.5L14 2.56981Z" fill="white"/>
<path d="M17.9994 2.5L14 2.56981" stroke="white" stroke-linecap="round" stroke-linejoin="round"/>
</svg>
