<svg width="24" height="24" viewBox="0 0 24 24" fill="none" xmlns="http://www.w3.org/2000/svg">
<path fill-rule="evenodd" clip-rule="evenodd" d="M18.4099 8.61035C20.0667 8.61035 21.4099 7.26721 21.4099 5.61035C21.4099 3.9535 20.0667 2.61035 18.4099 2.61035C16.753 2.61035 15.4099 3.9535 15.4099 5.61035C15.4099 7.26721 16.753 8.61035 18.4099 8.61035ZM19.7 17.0004V10.0165C19.2907 10.1361 18.8578 10.2003 18.4099 10.2003C18.3732 10.2003 18.3365 10.1998 18.3 10.199V17.0004C18.3 17.7184 17.718 18.3004 17 18.3004H6.99999C6.28202 18.3004 5.69999 17.7184 5.69999 17.0004V7.00038C5.69999 6.28241 6.28202 5.70038 6.99999 5.70038H13.8209C13.8204 5.67047 13.8201 5.64048 13.8201 5.61042C13.8201 5.15523 13.8863 4.71551 14.0097 4.30038H6.99999C5.50882 4.30038 4.29999 5.50922 4.29999 7.00038V17.0004C4.29999 18.4916 5.50882 19.7004 6.99999 19.7004H17C18.4912 19.7004 19.7 18.4916 19.7 17.0004Z" fill="#0A0A0A"/>
</svg>
