<svg width="16" height="16" viewBox="0 0 16 16" fill="none" xmlns="http://www.w3.org/2000/svg">
<path fill-rule="evenodd" clip-rule="evenodd" d="M9.07575 5.89571C8.84143 6.13002 8.84143 6.50992 9.07575 6.74424C9.31006 6.97855 9.68996 6.97855 9.92428 6.74424L13.9 2.7685V5.31997C13.9 5.65134 14.1686 5.91997 14.5 5.91997C14.8314 5.91997 15.1 5.65134 15.1 5.31997V1.31997C15.1 0.9886 14.8314 0.719971 14.5 0.719971H10.5C10.1686 0.719971 9.90001 0.988599 9.90001 1.31997C9.90001 1.65134 10.1686 1.91997 10.5 1.91997L13.0515 1.91997L9.07575 5.89571ZM1 4.31432C1 6.45033 2.61145 9.01952 4.6929 11.1032C6.76689 13.1795 9.35565 14.8151 11.4968 14.8151C12.4666 14.8151 13.3097 14.479 13.9886 13.7396C14.369 13.3363 14.66 12.8135 14.66 12.3132C14.66 11.9547 14.5183 11.6111 14.1602 11.3572L11.8773 9.75144C11.5714 9.53485 11.2954 9.41535 11.0268 9.41535C10.6985 9.41535 10.3852 9.5946 10.0345 9.93068L9.48994 10.4609C9.41534 10.5431 9.31089 10.573 9.2139 10.573C9.10946 10.573 9.00501 10.5356 8.92295 10.4983C8.48279 10.2668 7.68452 9.63194 6.92356 8.87015C6.17006 8.10835 5.51354 7.31669 5.29719 6.8611C5.25989 6.77895 5.22259 6.68186 5.22259 6.59224C5.22259 6.49514 5.25243 6.40552 5.33449 6.32337L5.86418 5.76322C6.19244 5.40473 6.37149 5.09105 6.37149 4.76244C6.37149 4.49357 6.25958 4.21723 6.03577 3.90355L4.47655 1.68539C4.20797 1.31943 3.84241 1.15512 3.44701 1.15512C2.96955 1.15512 2.4697 1.38665 2.02954 1.81236C1.31334 2.50693 1 3.36582 1 4.31432Z" fill="#767779"/>
</svg>
