<svg width="24" height="24" viewBox="0 0 24 24" fill="none" xmlns="http://www.w3.org/2000/svg">
<path fill-rule="evenodd" clip-rule="evenodd" d="M12 3.7998C9.68039 3.7998 7.79999 5.68021 7.79999 7.9998V10.3114C6.95535 10.4104 6.29999 11.1286 6.29999 11.9998V18.4998C6.29999 19.4387 7.0611 20.1998 7.99999 20.1998H16C16.9389 20.1998 17.7 19.4387 17.7 18.4998V11.9998C17.7 11.1286 17.0446 10.4104 16.2 10.3114V7.9998C16.2 5.68021 14.3196 3.7998 12 3.7998ZM14.8 10.2998V7.9998C14.8 6.45341 13.5464 5.1998 12 5.1998C10.4536 5.1998 9.19999 6.45341 9.19999 7.9998V10.2998H14.8ZM7.69999 11.9998C7.69999 11.8341 7.8343 11.6998 7.99999 11.6998H16C16.1657 11.6998 16.3 11.8341 16.3 11.9998V18.4998C16.3 18.6655 16.1657 18.7998 16 18.7998H7.99999C7.8343 18.7998 7.69999 18.6655 7.69999 18.4998V11.9998Z" fill="#0A0A0A"/>
</svg>
