<svg xmlns="http://www.w3.org/2000/svg" xmlns:xlink="http://www.w3.org/1999/xlink" version="1.1" width="256" height="256" viewBox="0 0 256 256" xml:space="preserve">
<g style="stroke: none; stroke-width: 0; stroke-dasharray: none; stroke-linecap: butt; stroke-linejoin: miter; stroke-miterlimit: 10; fill: none; fill-rule: nonzero; opacity: 1;" transform="translate(1.4065934065934016 1.4065934065934016) scale(2.81 2.81)">
	<path d="M 80.037 82.037 H 61.403 c -1.104 0 -2 -0.896 -2 -2 s 0.896 -2 2 -2 h 16.634 V 61.403 c 0 -1.104 0.896 -2 2 -2 s 2 0.896 2 2 v 18.634 C 82.037 81.142 81.142 82.037 80.037 82.037 z" style="stroke: none; stroke-width: 1; stroke-dasharray: none; stroke-linecap: butt; stroke-linejoin: miter; stroke-miterlimit: 10; fill: rgb(0,0,0); fill-rule: nonzero; opacity: 1;" transform=" matrix(1 0 0 1 0 0) " stroke-linecap="round"/>
	<path d="M 28.596 82.037 H 9.963 c -1.104 0 -2 -0.896 -2 -2 V 61.403 c 0 -1.104 0.896 -2 2 -2 s 2 0.896 2 2 v 16.634 h 16.633 c 1.104 0 2 0.896 2 2 S 29.701 82.037 28.596 82.037 z" style="stroke: none; stroke-width: 1; stroke-dasharray: none; stroke-linecap: butt; stroke-linejoin: miter; stroke-miterlimit: 10; fill: rgb(0,0,0); fill-rule: nonzero; opacity: 1;" transform=" matrix(1 0 0 1 0 0) " stroke-linecap="round"/>
	<path d="M 9.963 30.596 c -1.104 0 -2 -0.896 -2 -2 V 9.963 c 0 -1.104 0.896 -2 2 -2 h 18.633 c 1.104 0 2 0.896 2 2 s -0.896 2 -2 2 H 11.963 v 16.633 C 11.963 29.701 11.067 30.596 9.963 30.596 z" style="stroke: none; stroke-width: 1; stroke-dasharray: none; stroke-linecap: butt; stroke-linejoin: miter; stroke-miterlimit: 10; fill: rgb(0,0,0); fill-rule: nonzero; opacity: 1;" transform=" matrix(1 0 0 1 0 0) " stroke-linecap="round"/>
	<path d="M 80.037 30.596 c -1.104 0 -2 -0.896 -2 -2 V 11.963 H 61.403 c -1.104 0 -2 -0.896 -2 -2 s 0.896 -2 2 -2 h 18.634 c 1.104 0 2 0.896 2 2 v 18.633 C 82.037 29.701 81.142 30.596 80.037 30.596 z" style="stroke: none; stroke-width: 1; stroke-dasharray: none; stroke-linecap: butt; stroke-linejoin: miter; stroke-miterlimit: 10; fill: rgb(0,0,0); fill-rule: nonzero; opacity: 1;" transform=" matrix(1 0 0 1 0 0) " stroke-linecap="round"/>
	<path d="M 88 47 H 2 c -1.104 0 -2 -0.896 -2 -2 s 0.896 -2 2 -2 h 86 c 1.104 0 2 0.896 2 2 S 89.104 47 88 47 z" style="stroke: none; stroke-width: 1; stroke-dasharray: none; stroke-linecap: butt; stroke-linejoin: miter; stroke-miterlimit: 10; fill: rgb(0,0,0); fill-rule: nonzero; opacity: 1;" transform=" matrix(1 0 0 1 0 0) " stroke-linecap="round"/>
</g>
</svg>