<svg width="28" height="28" viewBox="0 0 28 28" fill="none" xmlns="http://www.w3.org/2000/svg">
<rect x="0.25" y="0.25" width="27.5" height="27.5" rx="13.75" stroke="#B4B4B4" stroke-width="0.5"/>
<path d="M14.0004 7.8501C14.4973 7.85031 14.9008 8.25356 14.9008 8.75049V13.1001H19.2504C19.7473 13.1003 20.1508 13.5036 20.1508 14.0005C20.1506 14.4972 19.7471 14.9007 19.2504 14.9009H14.9008V19.2505C14.9006 19.7472 14.4971 20.1507 14.0004 20.1509C13.5035 20.1509 13.1002 19.7474 13.1 19.2505V14.9009H8.7504C8.25347 14.9009 7.85022 14.4974 7.85001 14.0005C7.85001 13.5034 8.25334 13.1001 8.7504 13.1001H13.1V8.75049C13.1 8.25343 13.5033 7.8501 14.0004 7.8501Z" fill="#00C357"/>
</svg>
