<svg width="32" height="32" viewBox="0 0 32 32" fill="none" xmlns="http://www.w3.org/2000/svg">
<path d="M16.0001 27.7641C16.3026 27.7641 16.5926 27.7389 16.9077 27.7137L17.5884 29.012C17.7144 29.2894 18.0043 29.4406 18.3447 29.3902C18.6598 29.3398 18.8741 29.1003 18.9245 28.7725L19.1262 27.3356C19.706 27.1843 20.2733 26.9574 20.8405 26.7179L21.8993 27.6759C22.1262 27.9028 22.4413 27.9406 22.7565 27.7767C23.0212 27.6129 23.1346 27.323 23.0716 26.9952L22.7817 25.5834C23.2607 25.2431 23.7397 24.8523 24.1808 24.4238L25.4918 24.9784C25.8069 25.1044 26.0968 25.0414 26.3363 24.7515C26.5506 24.5246 26.5758 24.1969 26.3994 23.9196L25.6304 22.6969C25.9708 22.2053 26.2607 21.6758 26.5254 21.1212L27.975 21.1842C28.3027 21.2095 28.58 21.0204 28.6809 20.7179C28.7817 20.4027 28.6935 20.1002 28.4288 19.8985L27.2943 19.0036C27.4456 18.4363 27.5716 17.8313 27.6221 17.2136L28.9834 16.7724C29.2985 16.659 29.5002 16.4195 29.5002 16.0918C29.5002 15.764 29.2985 15.5245 28.9834 15.4111L27.6221 14.9699C27.5716 14.3523 27.4456 13.7598 27.2943 13.18L28.4288 12.285C28.6809 12.0833 28.7817 11.7934 28.6809 11.4783C28.58 11.1758 28.3027 10.9867 27.975 11.0119L26.5254 11.0623C26.2607 10.5077 25.9708 9.99088 25.6304 9.48667L26.3994 8.26397C26.5758 7.99927 26.5506 7.67153 26.3363 7.44464C26.0968 7.16733 25.8069 7.0917 25.4918 7.21775L24.1808 7.75977C23.7397 7.3438 23.2607 6.94043 22.7817 6.60009L23.0716 5.20092C23.1346 4.86058 23.0212 4.57067 22.7565 4.4194C22.4413 4.25554 22.1388 4.28075 21.8993 4.52025L20.8405 5.46563C20.2733 5.21353 19.706 5.01185 19.1262 4.84798L18.9245 3.4236C18.8741 3.09586 18.6598 2.86897 18.3447 2.80595C18.0043 2.76813 17.7144 2.90679 17.5884 3.17149L16.9077 4.46982C16.5926 4.44461 16.3026 4.43201 16.0001 4.43201C15.685 4.43201 15.4077 4.44461 15.0799 4.46982L14.4119 3.17149C14.2732 2.90679 13.9833 2.76813 13.6429 2.80595C13.3278 2.86897 13.1135 3.09586 13.0631 3.4236L12.8614 4.84798C12.2816 5.01185 11.7144 5.21353 11.1597 5.46563L10.1009 4.52025C9.8488 4.28075 9.54628 4.25554 9.24375 4.4194C8.96644 4.57067 8.85299 4.86058 8.91602 5.20092L9.21854 6.60009C8.72694 6.94043 8.24795 7.3438 7.81937 7.75977L6.49583 7.21775C6.1807 7.0917 5.89078 7.16733 5.65129 7.44464C5.4496 7.67153 5.42439 7.99927 5.58826 8.25137L6.35717 9.48667C6.01684 9.99088 5.73952 10.5077 5.46221 11.0623L4.01262 11.0119C3.69749 10.9867 3.42018 11.1758 3.30673 11.4783C3.20589 11.7934 3.29412 12.0833 3.55883 12.285L4.6933 13.18C4.54203 13.7598 4.41598 14.3523 4.37817 14.9699L3.00421 15.4111C2.68908 15.5119 2.5 15.7514 2.5 16.0918C2.5 16.4321 2.68908 16.6716 3.00421 16.7724L4.37817 17.2136C4.41598 17.8313 4.54203 18.4363 4.6933 19.0036L3.55883 19.8985C3.30673 20.1002 3.21849 20.4027 3.30673 20.7179C3.42018 21.0204 3.69749 21.2095 4.01262 21.1842L5.46221 21.1212C5.72692 21.6758 6.01684 22.2053 6.35717 22.6969L5.58826 23.9196C5.41179 24.1969 5.437 24.5246 5.65129 24.7515C5.89078 25.0414 6.1807 25.1044 6.49583 24.9784L7.81937 24.4238C8.24795 24.8523 8.72694 25.2431 9.21854 25.5834L8.91602 26.9952C8.85299 27.323 8.96644 27.6129 9.24375 27.7767C9.54628 27.9406 9.8614 27.9028 10.1009 27.6759L11.1471 26.7179C11.7144 26.9574 12.2816 27.1843 12.8614 27.3356L13.0631 28.7725C13.1135 29.1003 13.3278 29.3398 13.6556 29.3902C13.9833 29.4406 14.2732 29.2894 14.4119 29.012L15.0799 27.7137C15.3951 27.7389 15.685 27.7641 16.0001 27.7641ZM19.0379 15.2724C18.4707 13.7598 17.3363 12.9279 15.9623 12.9279C15.748 12.9279 15.5211 12.9531 15.143 13.0413L11.79 7.30598C13.0505 6.68833 14.4749 6.34799 16.0001 6.34799C21.143 6.34799 25.1767 10.243 25.58 15.2724H19.0379ZM6.38238 16.1044C6.38238 12.827 7.92021 9.94046 10.3278 8.17574L13.706 13.9489C13.0757 14.6296 12.7732 15.3607 12.7732 16.1422C12.7732 16.8985 13.0505 17.5918 13.706 18.2977L10.2522 23.9574C7.8824 22.1927 6.38238 19.3439 6.38238 16.1044ZM14.5253 16.1296C14.5253 15.3229 15.2186 14.6926 15.9749 14.6926C16.7816 14.6926 17.4497 15.3229 17.4497 16.1296C17.4497 16.9237 16.7816 17.5792 15.9749 17.5792C15.2186 17.5792 14.5253 16.9237 14.5253 16.1296ZM16.0001 25.8482C14.4371 25.8482 12.9875 25.4952 11.7018 24.8523L15.143 19.2305C15.5085 19.3187 15.748 19.3439 15.9623 19.3439C17.3489 19.3439 18.4833 18.4867 19.0379 16.9489H25.58C25.1767 21.9532 21.143 25.8482 16.0001 25.8482Z" fill="#767779"/>
</svg>
