<svg width="32" height="32" viewBox="0 0 32 32" fill="none" xmlns="http://www.w3.org/2000/svg">
<path fill-rule="evenodd" clip-rule="evenodd" d="M16.8401 27.7189C16.5508 27.7422 16.2808 27.7639 16 27.7639C15.7067 27.7639 15.4352 27.7421 15.1449 27.7187C15.1233 27.717 15.1017 27.7153 15.0798 27.7135L14.4118 29.0118C14.2731 29.2891 13.9832 29.4404 13.6555 29.39C13.3277 29.3396 13.1134 29.1001 13.063 28.7723L12.8613 27.3354C12.2815 27.1841 11.7143 26.9572 11.1471 26.7177L10.1008 27.6757C9.86134 27.9026 9.54622 27.9404 9.2437 27.7765C8.96639 27.6127 8.85294 27.3228 8.91597 26.995L9.21849 25.5833C8.72689 25.2429 8.2479 24.8522 7.81933 24.4236L6.4958 24.9782C6.18067 25.1043 5.89076 25.0412 5.65126 24.7513C5.43697 24.5244 5.41176 24.1967 5.58824 23.9194L6.35714 22.6967C6.01681 22.2051 5.72689 21.6757 5.46218 21.1211L4.01261 21.1841C3.69748 21.2093 3.42017 21.0202 3.30672 20.7177C3.21849 20.4026 3.30672 20.1001 3.55882 19.8984L4.69328 19.0034C4.54202 18.4362 4.41597 17.8312 4.37815 17.2135L3.0042 16.7723C2.68908 16.6715 2.5 16.432 2.5 16.0917C2.5 15.7513 2.68908 15.5118 3.0042 15.411L4.37815 14.9698C4.41597 14.3522 4.54202 13.7597 4.69328 13.1799L3.55882 12.2849C3.29412 12.0833 3.20588 11.7933 3.30672 11.4782C3.42017 11.1757 3.69748 10.9866 4.01261 11.0118L5.46218 11.0622C5.7395 10.5076 6.01681 9.99082 6.35714 9.48662L5.58824 8.25132C5.42437 7.99922 5.44958 7.67149 5.65126 7.4446C5.89076 7.16729 6.18067 7.09166 6.4958 7.21771L7.81933 7.75973C8.2479 7.34376 8.72689 6.9404 9.21849 6.60006L8.91597 5.2009C8.85294 4.86057 8.96639 4.57065 9.2437 4.41939C9.54622 4.25553 9.84874 4.28074 10.1008 4.52023L11.1597 5.46561C11.7143 5.21351 12.2815 5.01183 12.8613 4.84796L13.063 3.42359C13.1134 3.09586 13.3277 2.86897 13.6429 2.80595C13.9832 2.76813 14.2731 2.90679 14.4118 3.17149L15.0798 4.46981C15.4076 4.4446 15.6849 4.432 16 4.432C16.3025 4.432 16.5924 4.4446 16.9076 4.46981L17.5882 3.17149C17.7143 2.90679 18.0042 2.76813 18.3445 2.80595C18.6597 2.86897 18.8739 3.09586 18.9244 3.42359L19.1261 4.84796C19.7059 5.01183 20.2731 5.21351 20.8403 5.46561L21.8992 4.52023C22.1387 4.28074 22.4412 4.25553 22.7563 4.41939C23.021 4.57065 23.1345 4.86057 23.0714 5.2009L22.7815 6.60006C23.2605 6.9404 23.7395 7.34376 24.1807 7.75973L25.4916 7.21771C25.8067 7.09166 26.0966 7.16729 26.3361 7.4446C26.5504 7.67149 26.5756 7.99922 26.3992 8.26393L25.6303 9.48662C25.9706 9.99082 26.2605 10.5076 26.5252 11.0622L27.9748 11.0118C28.3025 10.9866 28.5798 11.1757 28.6807 11.4782C28.7815 11.7933 28.6807 12.0833 28.4286 12.2849L27.2941 13.1799C27.4454 13.7597 27.5714 14.3522 27.6218 14.9698L28.9832 15.411C29.2983 15.5244 29.5 15.7639 29.5 16.0917C29.5 16.4194 29.2983 16.6589 28.9832 16.7723L27.6218 17.2135C27.5714 17.8312 27.4454 18.4362 27.2941 19.0034L28.4286 19.8984C28.6933 20.1001 28.7815 20.4026 28.6807 20.7177C28.5798 21.0202 28.3025 21.2093 27.9748 21.1841L26.5252 21.1211C26.2605 21.6757 25.9706 22.2051 25.6303 22.6967L26.3992 23.9194C26.5756 24.1967 26.5504 24.5244 26.3361 24.7513C26.0966 25.0412 25.8067 25.1043 25.4916 24.9782L24.1807 24.4236C23.7395 24.8522 23.2605 25.2429 22.7815 25.5833L23.0714 26.995C23.1345 27.3228 23.021 27.6127 22.7563 27.7765C22.4412 27.9404 22.1261 27.9026 21.8992 27.6757L20.8403 26.7177C20.2731 26.9572 19.7059 27.1841 19.1261 27.3354L18.9244 28.7723C18.8739 29.1001 18.6597 29.3396 18.3445 29.39C18.0042 29.4404 17.7143 29.2891 17.5882 29.0118L16.9076 27.7135C16.885 27.7153 16.8625 27.7171 16.8401 27.7189ZM15.9622 12.9278C17.3361 12.9278 18.4706 13.7597 19.0378 15.2723H25.5798C25.1765 10.2429 21.1429 6.34796 16 6.34796C14.4748 6.34796 13.0504 6.6883 11.7899 7.30595L15.1429 13.0412C15.521 12.953 15.7479 12.9278 15.9622 12.9278ZM10.3277 8.17569C7.92017 9.9404 6.38235 12.827 6.38235 16.1043C6.38235 19.3438 7.88235 22.1925 10.2521 23.9572L13.7059 18.2975C13.0504 17.5917 12.7731 16.8984 12.7731 16.1421C12.7731 15.3606 13.0756 14.6295 13.7059 13.9488L10.3277 8.17569ZM15.9748 14.6925C15.2185 14.6925 14.5252 15.3228 14.5252 16.1295C14.5252 16.9236 15.2185 17.5791 15.9748 17.5791C16.7815 17.5791 17.4496 16.9236 17.4496 16.1295C17.4496 15.3228 16.7815 14.6925 15.9748 14.6925ZM11.7017 24.8522C12.9874 25.495 14.437 25.848 16 25.848C21.1429 25.848 25.1765 21.953 25.5798 16.9488H19.0378C18.4832 18.4866 17.3487 19.3438 15.9622 19.3438C15.7479 19.3438 15.5084 19.3186 15.1429 19.2303L11.7017 24.8522ZM24.0309 13.9519H19.8733C19.0437 12.5029 17.6575 11.6073 15.9622 11.6073C15.9198 11.6073 15.8776 11.608 15.8354 11.6094L13.7131 7.97926C14.4315 7.77678 15.1973 7.66859 16 7.66859C19.9342 7.66859 23.1209 10.3038 24.0309 13.9519ZM7.70288 16.1044C7.70288 13.7996 8.57343 11.7327 9.9962 10.2239L12.1202 13.8537C11.6877 14.5471 11.4525 15.3139 11.4525 16.1422C11.4525 16.9525 11.6749 17.6939 12.1073 18.3821L9.94846 21.9198C8.55159 20.4213 7.70288 18.3823 7.70288 16.1044ZM13.6486 24.201C14.3853 24.414 15.1716 24.5275 16 24.5275C19.933 24.5275 23.1167 21.8947 24.0289 18.2694H19.8849C19.0673 19.739 17.6807 20.6644 15.9622 20.6644C15.9134 20.6644 15.8644 20.6635 15.815 20.6617L13.6486 24.201Z" fill="#0A0A0A"/>
</svg>
