<svg width="24" height="24" viewBox="0 0 24 24" fill="none" xmlns="http://www.w3.org/2000/svg">
<path fill-rule="evenodd" clip-rule="evenodd" d="M11.1361 3.02313C11.3721 2.13812 12.628 2.13812 12.864 3.02313L14.4792 9.08036H21.1247C21.984 9.08036 22.3486 10.1742 21.6612 10.6898L16.681 14.4249L18.3562 20.7068C18.5749 21.5269 17.6348 22.1618 16.9558 21.6525L12 17.9357L7.04432 21.6525C6.36526 22.1618 5.42517 21.5269 5.64388 20.7068L7.31904 14.4249L2.33888 10.6898C1.65146 10.1742 2.01609 9.08036 2.87537 9.08036H9.52082L11.1361 3.02313ZM12 5.21677L10.7734 9.81661C10.669 10.208 10.3146 10.4804 9.90946 10.4804H4.39294L8.43232 13.5099C8.72419 13.7288 8.85379 14.1031 8.75978 14.4556L7.37302 19.6559L11.4636 16.588C11.7815 16.3496 12.2186 16.3496 12.5365 16.588L16.627 19.6559L15.2403 14.4556C15.1463 14.1031 15.2759 13.7288 15.5678 13.5099L19.6071 10.4804H14.0906C13.6855 10.4804 13.331 10.208 13.2267 9.81661L12 5.21677Z" fill="#0A0A0A"/>
</svg>
