<svg width="24" height="24" viewBox="0 0 24 24" fill="none" xmlns="http://www.w3.org/2000/svg">
<path fill-rule="evenodd" clip-rule="evenodd" d="M17.245 19.7448C17.1767 19.8131 17.0977 19.8644 17.0135 19.8985C16.7607 20.0011 16.4601 19.9498 16.2551 19.7448L11.7551 15.2448C11.4817 14.9714 11.4817 14.5282 11.7551 14.2548C12.0284 13.9815 12.4717 13.9815 12.745 14.2548L16.05 17.5599V4.7498C16.05 4.3632 16.3634 4.0498 16.75 4.0498C17.1366 4.0498 17.45 4.3632 17.45 4.7498V17.5599L20.7551 14.2548C21.0284 13.9815 21.4717 13.9815 21.745 14.2548C22.0184 14.5282 22.0184 14.9714 21.745 15.2448L17.2455 19.7443L17.245 19.7448ZM7.74502 4.256C7.47166 3.98263 7.02844 3.98263 6.75507 4.256L2.25507 8.756C1.98171 9.02936 1.98171 9.47258 2.25507 9.74594C2.52844 10.0193 2.97166 10.0193 3.24502 9.74594L6.55005 6.44092V19.251C6.55005 19.6376 6.86345 19.951 7.25005 19.951C7.63665 19.951 7.95005 19.6376 7.95005 19.251V6.44092L11.2551 9.74594C11.5284 10.0193 11.9717 10.0193 12.245 9.74594C12.5184 9.47258 12.5184 9.02936 12.245 8.756L7.74502 4.256Z" fill="#0A0A0A"/>
</svg>
