<svg width="18" height="17" viewBox="0 0 18 17" fill="none" xmlns="http://www.w3.org/2000/svg">
<path d="M16.7583 6.07215L16.7748 6.11893L16.8358 6.32108L16.8869 6.50251L16.9087 6.58536L16.9444 6.73536C17.4076 8.82559 17.0694 11.0135 15.9969 12.8664C14.9266 14.725 13.1967 16.1133 11.1505 16.7557L11.0062 16.7986L10.829 16.8443L10.573 16.905C10.4825 16.9256 10.3888 16.9273 10.2976 16.9101C10.2065 16.8928 10.1199 16.857 10.0432 16.8048C9.96653 16.7526 9.90143 16.6851 9.85199 16.6066C9.80255 16.5281 9.76981 16.4403 9.75583 16.3486C9.72712 16.1604 9.77013 15.9682 9.87635 15.8102C9.98258 15.6522 10.1443 15.5398 10.3294 15.4954L10.5355 15.4436C10.664 15.41 10.7748 15.3771 10.8673 15.3461C12.5105 14.7912 13.8947 13.6554 14.7598 12.1521C15.6298 10.6499 15.9209 8.88151 15.5783 7.17965L15.5537 7.06786L15.5208 6.93751L15.4798 6.78822L15.4305 6.62036C15.3753 6.43726 15.3909 6.24009 15.4743 6.06797C15.5576 5.89584 15.7026 5.76132 15.8805 5.69108C15.9631 5.65842 16.0514 5.64237 16.1403 5.64385C16.2291 5.64533 16.3168 5.66431 16.3984 5.6997C16.4799 5.73509 16.5537 5.7862 16.6154 5.8501C16.6772 5.91401 16.7257 5.98946 16.7583 6.07215ZM1.20905 5.68572C1.39841 5.74604 1.55658 5.87817 1.64966 6.05377C1.74273 6.22936 1.76328 6.43443 1.70691 6.62501C1.64262 6.84143 1.59619 7.02143 1.56762 7.16536C1.22656 8.86587 1.51801 10.6324 2.38726 12.1332C3.25317 13.6378 4.63898 14.7742 6.28405 15.3286L6.39333 15.3632L6.45548 15.3811L6.59476 15.4189L6.84262 15.48C7.02882 15.5238 7.19177 15.636 7.29914 15.7943C7.40651 15.9526 7.45046 16.1455 7.42226 16.3346C7.39581 16.512 7.29998 16.6717 7.15585 16.7784C7.01172 16.8852 6.8311 16.9303 6.65369 16.9039L6.60441 16.895L6.39869 16.8468L6.21655 16.8004L6.05726 16.7557L5.98583 16.7343C3.94397 16.09 2.21827 14.7028 1.15012 12.8471C0.0755816 10.991 -0.261859 8.79872 0.204762 6.70536L0.232262 6.59108L0.267977 6.45715L0.337262 6.21965L0.364405 6.13036C0.390638 6.04568 0.433296 5.96699 0.489943 5.89879C0.546589 5.8306 0.616115 5.77423 0.69455 5.73291C0.772985 5.69158 0.858792 5.66611 0.94707 5.65796C1.03535 5.6498 1.12437 5.65947 1.20905 5.68572ZM8.58976 2.85715C11.7458 2.85715 14.304 5.41536 14.304 8.57143C14.304 11.7275 11.7458 14.2857 8.58976 14.2857C5.43405 14.2857 2.87548 11.7275 2.87548 8.57143C2.87548 5.41536 5.43405 2.85715 8.58976 2.85715ZM8.58976 4.28572C6.22298 4.28572 4.30405 6.20465 4.30405 8.57143C4.30405 10.9382 6.22298 12.8571 8.58976 12.8571C10.9569 12.8571 12.8755 10.9382 12.8755 8.57143C12.8755 6.20465 10.9569 4.28572 8.58976 4.28572ZM8.58976 6.09648e-06C10.7345 -0.00255412 12.8019 0.801341 14.3815 2.25215L14.4669 2.33322L14.5651 2.43108L14.6758 2.54608L14.7994 2.67786C14.8624 2.74589 14.9108 2.82618 14.9414 2.91372C14.9721 3.00126 14.9843 3.09417 14.9775 3.18666C14.9706 3.27915 14.9447 3.36924 14.9015 3.45129C14.8583 3.53334 14.7986 3.60561 14.7262 3.66358C14.5775 3.78268 14.3896 3.84159 14.1995 3.82863C14.0095 3.81566 13.8312 3.73177 13.7001 3.59358C13.6226 3.51143 13.5505 3.43822 13.484 3.37322L13.359 3.25393L13.3019 3.20286C11.9998 2.05716 10.3242 1.42624 8.58976 1.42858C6.85376 1.42619 5.1767 2.0582 3.87405 3.20572L3.83333 3.24215L3.74298 3.32786L3.64048 3.42965L3.46369 3.61358C3.19226 3.90251 2.74441 3.93501 2.43405 3.68858C2.36445 3.63332 2.30641 3.5649 2.26327 3.4872C2.22012 3.40951 2.19271 3.32408 2.18259 3.23579C2.17248 3.1475 2.17986 3.05808 2.20431 2.97265C2.22877 2.88721 2.26982 2.80743 2.32512 2.73786L2.35726 2.70001L2.50191 2.54608L2.63333 2.41108C2.69583 2.34858 2.75333 2.29322 2.80619 2.24501C4.38476 0.798829 6.44854 -0.00231831 8.58941 6.09648e-06" fill="white"/>
</svg>
