<svg width="32" height="32" viewBox="0 0 32 32" fill="none" xmlns="http://www.w3.org/2000/svg">
<path fill-rule="evenodd" clip-rule="evenodd" d="M10.2632 7.16603C12.0088 6.03242 14.0511 5.44138 16.1324 5.46753C18.2136 5.49368 20.2404 6.13584 21.957 7.31294C22.3214 7.56281 22.8193 7.46998 23.0692 7.10559C23.3191 6.74121 23.2263 6.24325 22.8619 5.99339C20.8845 4.63748 18.5498 3.89778 16.1525 3.86766C13.7551 3.83754 11.4025 4.51835 9.39175 5.82416C9.0212 6.0648 8.91589 6.56026 9.15652 6.93081C9.39716 7.30136 9.89262 7.40667 10.2632 7.16603ZM26.2469 9.50241C26.0103 9.12928 25.516 9.0186 25.1429 9.25521C24.7698 9.49182 24.6591 9.98611 24.8957 10.3592C26.0012 12.1027 26.5701 14.1325 26.5315 16.1966C26.493 18.2606 25.8488 20.2678 24.679 21.9688C24.4286 22.3329 24.5208 22.8309 24.8848 23.0813C25.2489 23.3317 25.747 23.2395 25.9973 22.8755C27.3448 20.9161 28.0869 18.604 28.1313 16.2264C28.1756 13.8489 27.5204 11.5107 26.2469 9.50241ZM7.04586 9.00668C7.41235 9.25345 7.50941 9.75059 7.26265 10.1171C6.16686 11.7446 5.54739 13.6457 5.47406 15.6063C5.40073 17.567 5.87644 19.5091 6.8476 21.2139C6.94884 21.3916 6.97817 21.6014 6.92955 21.8L5.90082 26.0036L10.5184 25.2053C10.6941 25.175 10.8748 25.2041 11.032 25.2882C12.6909 26.1755 14.5572 26.6023 16.4369 26.5243C18.3166 26.4463 20.1411 25.8663 21.7208 24.8445C22.0917 24.6045 22.587 24.7108 22.827 25.0818C23.0669 25.4527 22.9607 25.948 22.5897 26.188C20.7701 27.3649 18.6685 28.0331 16.5033 28.1229C14.4311 28.209 12.3731 27.7623 10.5251 26.8279L5.97276 27.6149C4.93129 27.795 4.04704 26.8477 4.29828 25.821L5.30118 21.723C4.28785 19.8287 3.79474 17.6973 3.87518 15.5465C3.95965 13.2881 4.67321 11.0982 5.93545 9.22347C6.18221 8.85698 6.67936 8.75992 7.04586 9.00668ZM9.80003 16C9.80003 12.5759 12.5759 9.80003 16 9.80003C19.4242 9.80003 22.2 12.5759 22.2 16C22.2 19.4242 19.4242 22.2 16 22.2C12.5759 22.2 9.80003 19.4242 9.80003 16ZM16 8.20003C11.6922 8.20003 8.20003 11.6922 8.20003 16C8.20003 20.3079 11.6922 23.8 16 23.8C20.3079 23.8 23.8 20.3079 23.8 16C23.8 11.6922 20.3079 8.20003 16 8.20003Z" fill="#767779"/>
</svg>
