<svg width="25" height="25" viewBox="0 0 25 25" fill="none" xmlns="http://www.w3.org/2000/svg">
<path d="M2.06899 5.35645C2.31567 4.99035 2.81298 4.89348 3.17934 5.13965C3.54584 5.38641 3.64291 5.88448 3.39614 6.25098C2.30068 7.87827 1.68138 9.77993 1.60806 11.7402C1.53942 13.5782 1.95308 15.4002 2.80532 17.0254L2.9811 17.3477L3.0436 17.4863C3.09218 17.6295 3.09957 17.7847 3.06313 17.9336L2.03384 22.1367L6.652 21.3389L6.78774 22.127H6.78872L6.652 21.3389C6.82754 21.3085 7.00856 21.3379 7.16567 21.4219C8.82443 22.3091 10.6914 22.7361 12.5709 22.6582C14.4503 22.5801 16.2747 21.999 17.8541 20.9775C18.225 20.7377 18.7205 20.8442 18.9606 21.2148C19.2006 21.5858 19.0943 22.0813 18.7233 22.3213C16.9039 23.498 14.8023 24.1669 12.6374 24.2568C10.5658 24.3427 8.50841 23.894 6.66079 22.96L2.1061 23.748C1.06509 23.9274 0.181334 22.9803 0.432274 21.9541L1.4352 17.8535C0.422703 15.9598 -0.0719269 13.8295 0.00844574 11.6797C0.0929584 9.42149 0.806953 7.23097 2.06899 5.35645ZM12.1344 4.33301C16.442 4.3331 19.934 7.82526 19.9342 12.1328C19.9342 16.4406 16.4422 19.9325 12.1344 19.9326C7.8266 19.9326 4.33462 16.4406 4.33462 12.1328C4.33487 7.82521 7.82676 4.33301 12.1344 4.33301ZM21.277 5.38867C21.65 5.15222 22.1439 5.2629 22.3805 5.63574C23.6539 7.6439 24.3096 9.98195 24.2653 12.3594C24.2209 14.7369 23.479 17.0495 22.1315 19.0088C21.8811 19.3727 21.3822 19.4652 21.0182 19.2148C20.6546 18.9644 20.563 18.4654 20.8131 18.1016C21.9827 16.4008 22.6271 14.3938 22.6657 12.3301C22.7042 10.2661 22.1345 8.23559 21.029 6.49219C20.7929 6.11922 20.9043 5.62521 21.277 5.38867ZM12.1344 5.93262C8.71041 5.93262 5.93448 8.70886 5.93423 12.1328C5.93423 15.557 8.71026 18.333 12.1344 18.333C15.5585 18.3329 18.3346 15.5569 18.3346 12.1328C18.3344 8.70892 15.5584 5.93271 12.1344 5.93262ZM12.2858 0.000976562C14.683 0.0310927 17.0185 0.771218 18.9958 2.12695C19.3598 2.37685 19.4524 2.87402 19.2028 3.23828C18.9529 3.60256 18.4548 3.69613 18.0905 3.44629C16.374 2.26942 14.3472 1.62676 12.2663 1.60059C10.1853 1.57454 8.14253 2.16543 6.39712 3.29883C6.0266 3.53923 5.53125 3.43393 5.29067 3.06348C5.05051 2.69314 5.15504 2.19769 5.52505 1.95703C7.53557 0.651386 9.88872 -0.0289628 12.2858 0.000976562Z" fill="white"/>
</svg>
