<svg width="32" height="32" viewBox="0 0 32 32" fill="none" xmlns="http://www.w3.org/2000/svg">
<path fill-rule="evenodd" clip-rule="evenodd" d="M16.1323 5.46753C14.0511 5.44138 12.0087 6.03242 10.2631 7.16603C9.89256 7.40667 9.3971 7.30136 9.15646 6.93081C8.91583 6.56026 9.02114 6.0648 9.39169 5.82416C11.4025 4.51835 13.755 3.83754 16.1524 3.86766C18.5498 3.89778 20.8845 4.63748 22.8618 5.99339C23.2262 6.24325 23.319 6.74121 23.0692 7.10559C22.8193 7.46998 22.3213 7.56281 21.9569 7.31294C20.2404 6.13584 18.2135 5.49368 16.1323 5.46753ZM25.1428 9.25521C25.516 9.0186 26.0103 9.12928 26.2469 9.50241C27.5203 11.5107 28.1756 13.8489 28.1312 16.2264C28.0868 18.604 27.3448 20.9161 25.9973 22.8755C25.7469 23.2395 25.2488 23.3317 24.8848 23.0813C24.5207 22.8309 24.4286 22.3329 24.6789 21.9688C25.8488 20.2678 26.4929 18.2606 26.5315 16.1966C26.57 14.1325 26.0011 12.1027 24.8956 10.3592C24.659 9.98611 24.7697 9.49182 25.1428 9.25521ZM7.26259 10.1171C7.50935 9.75059 7.41229 9.25345 7.0458 9.00668C6.6793 8.75992 6.18215 8.85698 5.93539 9.22347C4.67315 11.0982 3.95959 13.2881 3.87512 15.5465C3.79468 17.6973 4.28779 19.8287 5.30112 21.723L4.29822 25.821C4.04698 26.8477 4.93123 27.795 5.9727 27.6149L10.525 26.8279C12.373 27.7623 14.431 28.209 16.5032 28.1229C18.6684 28.0331 20.77 27.3649 22.5897 26.188C22.9606 25.948 23.0669 25.4527 22.8269 25.0818C22.5869 24.7108 22.0917 24.6045 21.7207 24.8445C20.141 25.8663 18.3165 26.4463 16.4368 26.5243C14.5571 26.6023 12.6909 26.1755 11.0319 25.2882C10.8748 25.2041 10.694 25.175 10.5183 25.2053L5.90076 26.0036L6.92948 21.8C6.97811 21.6014 6.94878 21.3916 6.84754 21.2139C5.87638 19.5091 5.40067 17.567 5.474 15.6063C5.54733 13.6457 6.1668 11.7446 7.26259 10.1171ZM16 8.20003C11.6922 8.20003 8.19997 11.6922 8.19997 16C8.19997 20.3079 11.6922 23.8 16 23.8C20.3078 23.8 23.8 20.3079 23.8 16C23.8 11.6922 20.3078 8.20003 16 8.20003Z" fill="#0A0A0A"/>
</svg>
